<?xml version="1.0" standalone="no"?>
<!DOCTYPE svg PUBLIC "-//W3C//DTD SVG 20010904//EN"
 "http://www.w3.org/TR/2001/REC-SVG-20010904/DTD/svg10.dtd">
<svg version="1.0" xmlns="http://www.w3.org/2000/svg"
 width="197.000000pt" height="300.000000pt" viewBox="0 0 197.000000 300.000000"
 preserveAspectRatio="xMidYMid meet">
<metadata>
Created by potrace 1.10, written by Peter Selinger 2001-2011
</metadata>
<g transform="translate(0.000000,300.000000) scale(0.100000,-0.100000)"
fill="#000000" stroke="none">
<path d="M950 2794 c-104 -38 -122 -49 -165 -99 -25 -29 -45 -61 -45 -71 0
-35 53 -219 66 -230 8 -6 14 -27 14 -47 0 -34 -2 -36 -37 -39 -36 -3 -38 -5
-41 -40 -3 -34 -9 -41 -63 -74 -67 -40 -89 -68 -94 -116 -2 -18 -10 -80 -17
-138 -7 -58 -12 -130 -10 -160 1 -30 3 -100 4 -154 0 -69 3 -94 10 -82 10 18
12 135 5 219 -3 26 -1 47 4 47 5 0 9 -15 9 -34 0 -19 7 -39 17 -47 15 -13 16
-11 9 16 -5 17 -9 35 -10 40 -2 6 -6 21 -9 35 -10 41 -14 149 -5 144 4 -3 6
12 3 33 -5 37 -5 37 15 -12 11 -27 20 -56 20 -62 0 -7 4 -13 9 -13 5 0 8 11 7
25 0 14 -4 25 -8 25 -9 0 -28 68 -28 103 0 31 28 80 41 71 5 -3 9 0 9 5 0 6 9
11 20 11 11 0 20 5 20 11 0 5 -4 7 -10 4 -5 -3 -10 -4 -10 -1 0 3 20 19 45 37
25 18 45 37 44 43 -4 30 2 37 24 31 21 -6 21 -6 3 9 -19 16 -19 16 5 16 23 0
26 -5 27 -35 2 -53 20 -113 47 -156 19 -30 22 -39 11 -48 -7 -6 -17 -7 -21 -3
-5 4 -5 1 -1 -5 11 -19 21 -16 36 12 10 19 16 22 22 13 7 -10 8 -9 6 2 -1 8 3
25 10 38 7 12 10 28 6 35 -5 7 -1 6 10 -2 15 -13 19 -13 27 0 15 23 10 34 -6
13 -16 -21 -20 -12 -6 15 8 15 6 17 -18 13 -20 -3 -35 3 -50 19 -11 12 -21 26
-21 30 0 9 30 19 73 24 23 3 44 18 75 52 37 41 42 44 32 19 -6 -16 -19 -41
-30 -57 -13 -17 -16 -30 -10 -34 5 -3 10 0 10 7 0 7 12 31 27 52 l26 40 13
-43 c7 -23 20 -48 30 -55 9 -7 14 -17 11 -22 -3 -6 3 -15 14 -22 15 -10 19
-10 17 0 -2 7 -7 16 -13 20 -5 4 -7 10 -3 13 3 3 21 -4 39 -16 19 -11 26 -19
17 -15 -10 3 -18 0 -18 -5 0 -7 9 -9 21 -6 12 3 40 -5 66 -19 25 -13 52 -24
59 -24 16 0 84 -71 84 -88 0 -7 5 -10 12 -6 6 4 8 3 5 -4 -10 -15 3 -43 16
-35 5 3 7 2 4 -4 -4 -6 16 -62 43 -124 27 -63 50 -107 50 -97 0 11 6 15 19 11
12 -3 17 -11 14 -19 -3 -8 2 -23 12 -34 10 -11 15 -26 12 -35 -4 -8 -2 -15 3
-15 5 0 7 -14 5 -30 -3 -18 0 -28 5 -25 22 14 8 -26 -14 -40 -23 -15 -35 -39
-57 -109 -12 -41 3 -22 21 26 8 22 26 48 40 57 25 15 25 15 7 -5 -9 -11 -14
-24 -11 -27 4 -4 1 -13 -5 -21 -7 -8 -10 -20 -6 -26 3 -5 3 -10 -2 -10 -4 -1
-21 -12 -38 -26 l-30 -24 33 11 c40 14 56 37 72 108 22 95 8 171 -54 291 -37
72 -59 105 -70 104 -13 -2 -14 1 -5 12 10 13 6 18 -13 15 -4 0 -5 6 -2 14 4 8
1 15 -7 15 -7 0 -10 3 -6 6 3 4 -4 21 -16 38 -12 17 -27 40 -33 51 -6 11 -69
50 -140 87 -111 57 -134 73 -163 114 -39 55 -55 102 -41 119 5 7 8 14 5 17 -3
3 10 21 29 41 33 35 46 38 46 10 0 -7 -7 -13 -15 -13 -8 0 -15 -7 -15 -15 0
-13 -10 -18 -30 -17 -3 0 -5 -11 -5 -24 0 -24 2 -23 40 18 22 24 49 48 60 53
33 17 40 72 18 130 -13 32 -25 49 -34 47 -8 -2 -11 0 -7 3 12 12 -19 60 -58
90 -29 23 -50 30 -93 32 -31 1 -63 0 -71 -3z m118 -48 c27 -14 85 -79 82 -92
-1 -4 4 -10 11 -15 7 -4 13 -28 13 -56 1 -41 -2 -48 -19 -49 -12 -1 -30 -6
-41 -12 -22 -12 -44 0 -44 24 0 6 -8 18 -17 25 -9 8 -14 9 -11 4 15 -25 -11
-38 -74 -38 l-63 1 48 -8 c27 -5 55 -14 64 -22 15 -11 16 -11 10 5 -5 12 -1
17 13 17 16 0 20 -7 20 -37 0 -21 -9 -51 -20 -68 -11 -16 -20 -37 -20 -45 0
-13 1 -13 10 0 9 13 10 13 10 0 -1 -8 -7 -24 -15 -34 -8 -11 -15 -17 -15 -13
0 5 -6 2 -14 -5 -8 -7 -12 -16 -9 -20 2 -5 2 -8 -1 -8 -2 0 -12 -3 -22 -7 -16
-6 -15 -2 5 33 l23 39 -39 -42 c-27 -29 -48 -43 -65 -43 -29 0 -56 24 -38 35
6 3 8 11 5 16 -4 5 4 9 17 10 22 0 22 1 3 9 -16 7 -13 9 15 8 19 -1 48 7 63
17 24 16 30 16 38 4 5 -8 9 -9 9 -3 0 5 -13 20 -30 32 -32 24 -40 23 -14 -2
14 -15 14 -16 -3 -17 -10 -1 -24 -1 -32 0 -7 2 -10 -2 -6 -8 4 -7 -5 -11 -24
-11 -29 0 -56 19 -29 21 7 0 4 4 -7 9 -19 8 -19 9 2 9 12 1 34 6 50 12 27 10
27 11 8 25 -17 13 -20 12 -27 -6 -4 -11 -14 -20 -23 -20 -18 0 -18 2 -3 52 9
30 9 41 -1 51 -10 10 -12 8 -9 -8 6 -26 -19 -75 -37 -75 -8 0 -15 6 -15 13 0
6 -3 23 -7 36 -5 20 -3 22 15 17 11 -4 23 -2 27 4 4 6 -4 10 -19 10 -23 0 -39
19 -18 21 4 0 25 1 48 2 22 2 54 11 70 22 16 11 32 18 37 17 19 -6 4 16 -23
31 -29 18 -41 12 -19 -10 8 -8 5 -13 -12 -18 -13 -4 -32 -14 -41 -23 -16 -13
-20 -12 -48 18 -28 30 -29 33 -15 59 7 15 21 33 29 40 9 8 16 20 16 27 0 8 10
14 24 14 14 0 31 6 39 14 25 26 125 33 165 12z m-198 -505 c0 -28 30 -61 56
-61 20 0 23 -3 14 -17 -5 -10 -15 -31 -20 -47 -8 -22 -14 -26 -22 -18 -6 6
-12 19 -13 29 -1 10 -9 32 -17 48 -9 17 -20 49 -24 70 -6 37 -6 39 9 26 10 -7
17 -21 17 -30z m684 -423 c-5 -7 -12 1 -20 23 -19 53 -15 68 7 26 11 -21 17
-43 13 -49z"/>
<path d="M930 2651 c0 -5 13 -12 28 -16 35 -7 58 -41 42 -60 -9 -11 -7 -12 9
-8 32 8 39 53 8 53 -7 0 -18 9 -25 20 -12 20 -62 29 -62 11z"/>
<path d="M902 2500 c-7 -11 -8 -20 -3 -20 5 0 11 6 14 13 3 9 7 9 18 0 8 -6
27 -9 43 -6 l28 6 -32 13 c-43 19 -53 18 -68 -6z"/>
<path d="M774 2192 c-6 -4 -12 -20 -12 -37 -1 -16 -2 -39 -3 -50 -3 -34 0 -45
13 -45 9 0 9 3 1 11 -10 10 -2 52 22 112 7 18 -2 22 -21 9z"/>
<path d="M1044 2151 c1 -22 4 -43 9 -47 10 -10 9 58 -1 74 -5 7 -8 -4 -8 -27z"/>
<path d="M1120 2189 c0 -2 -9 -35 -20 -73 -12 -43 -15 -65 -7 -57 6 6 12 17
12 24 1 7 7 32 14 56 7 23 10 46 7 49 -3 3 -6 3 -6 1z"/>
<path d="M1307 2127 c-4 -10 -2 -16 6 -14 6 1 13 -9 15 -23 2 -14 11 -52 21
-85 10 -33 24 -88 31 -122 7 -35 16 -63 20 -63 13 0 -8 100 -41 191 -17 45
-19 61 -10 78 7 12 8 20 2 19 -5 -2 -16 6 -24 16 -12 17 -14 17 -20 3z"/>
<path d="M1270 1972 c0 -6 4 -22 10 -36 7 -18 6 -26 -1 -26 -8 0 -7 -5 1 -15
10 -13 9 -15 -9 -15 -12 0 -30 4 -39 9 -30 15 -72 22 -72 11 0 -5 3 -9 8 -8
13 2 62 -21 62 -30 0 -5 18 -8 41 -7 35 2 42 -1 51 -24 6 -14 11 -29 10 -33
-1 -5 3 -8 8 -8 14 0 14 0 -20 71 -16 35 -31 74 -33 86 -3 24 -17 44 -17 25z"/>
<path d="M611 1875 c0 -11 8 -36 19 -55 16 -30 19 -32 20 -12 0 12 -4 22 -10
22 -5 0 -14 15 -19 33 -5 19 -9 24 -10 12z"/>
<path d="M1240 1820 c-11 -7 -7 -10 18 -10 17 0 35 0 39 -1 4 0 9 3 10 8 4 12
-49 15 -67 3z"/>
<path d="M1360 1796 c0 -8 5 -18 10 -21 6 -3 10 -15 10 -25 0 -10 5 -22 10
-25 10 -6 9 8 -5 58 -8 28 -25 37 -25 13z"/>
<path d="M649 1770 c-4 -9 -4 -38 -1 -65 2 -28 5 -62 5 -76 0 -15 6 -26 14
-26 10 0 12 7 8 21 -4 12 -10 53 -13 91 -4 39 -10 63 -13 55z"/>
<path d="M1423 1752 c-6 -4 -15 -20 -19 -35 -5 -24 -1 -33 25 -58 29 -26 34
-27 47 -14 14 13 13 15 -3 15 -28 0 -66 30 -55 43 8 10 23 57 19 57 -1 0 -7
-4 -14 -8z"/>
<path d="M1567 1723 c21 -51 24 -53 21 -11 -2 20 -6 34 -10 31 -5 -2 -8 1 -8
6 0 6 -4 11 -9 11 -6 0 -3 -17 6 -37z"/>
<path d="M911 1650 c-1 -23 7 -44 22 -60 12 -14 18 -20 13 -12 -5 7 -15 34
-22 60 -12 46 -13 46 -13 12z"/>
<path d="M1248 1617 c-36 -39 -53 -66 -47 -71 5 -6 9 -21 9 -34 0 -19 -3 -22
-13 -13 -10 8 -14 7 -14 -4 0 -8 7 -15 14 -15 27 0 39 -24 35 -73 -3 -41 -8
-50 -33 -63 -27 -13 -36 -13 -92 2 -77 22 -153 20 -187 -5 -37 -26 -72 -32
-100 -16 -14 8 -32 17 -40 21 -8 4 -23 14 -33 22 -16 14 -17 14 -12 0 4 -10
-1 -17 -14 -21 -13 -3 -21 -13 -21 -26 0 -12 -5 -21 -11 -21 -6 0 -9 -7 -5
-15 3 -9 0 -15 -9 -15 -8 0 -16 7 -16 15 -2 25 -4 29 -22 68 -18 38 -17 67 2
67 12 0 38 -25 43 -41 3 -9 9 -9 22 -2 16 9 13 13 -28 36 -25 14 -48 21 -51
16 -16 -25 -24 -2 -21 61 2 39 -1 70 -5 70 -5 0 -8 -3 -8 -7 4 -25 -2 -53 -11
-48 -31 19 13 -126 67 -224 l35 -63 -16 -57 c-10 -31 -30 -90 -46 -131 -51
-129 -135 -541 -150 -734 -16 -203 -14 -249 13 -274 40 -37 62 -19 27 23 -15
18 -18 99 -7 205 3 36 9 92 12 125 3 33 8 66 10 73 3 8 8 37 11 65 3 29 10 68
17 87 14 45 15 50 28 148 7 45 16 82 20 82 5 0 9 16 9 35 0 19 5 35 11 35 5 0
7 5 4 11 -7 10 29 112 47 135 4 6 5 14 1 17 -3 4 2 7 13 8 10 0 13 3 7 6 -7 2
-13 11 -13 20 0 10 6 12 23 8 21 -7 21 -6 3 7 -16 13 -17 18 -5 39 15 29 21
69 9 69 -5 0 -1 18 7 40 9 22 20 40 25 40 5 0 6 5 2 11 -4 7 1 10 12 7 12 -2
19 -11 18 -24 -1 -16 4 -20 22 -16 13 2 25 12 27 21 3 11 5 9 6 -6 1 -19 7
-23 37 -23 19 0 33 4 30 9 -3 5 1 12 10 15 22 8 22 9 18 -21 -2 -16 -1 -20 2
-9 3 10 15 33 25 50 l20 31 -7 -27 c-4 -18 -2 -28 5 -28 6 0 10 6 9 12 -2 7
14 21 35 31 38 19 39 19 57 -1 19 -20 19 -20 -27 -29 -50 -9 -79 -37 -53 -53
19 -12 34 -2 20 15 -8 10 -3 11 26 8 23 -2 33 0 29 7 -3 5 6 15 22 21 27 10
58 8 97 -7 13 -5 17 -4 12 4 -11 18 8 21 29 5 16 -13 17 -15 3 -10 -22 8 -24
-9 -2 -17 11 -4 15 -14 12 -31 -3 -15 -1 -25 7 -25 9 0 9 -14 2 -55 -6 -31
-14 -50 -18 -44 -3 6 -6 -9 -5 -34 0 -25 3 -43 5 -41 2 2 13 -8 24 -23 17 -22
18 -28 8 -46 -7 -11 -15 -43 -16 -71 -7 -99 -17 -211 -20 -223 -3 -7 0 -13 6
-13 6 0 8 -4 5 -8 -3 -5 -6 -124 -7 -264 0 -146 -6 -286 -13 -327 -11 -66 -11
-71 5 -71 34 0 41 71 50 490 7 350 11 414 27 475 16 58 24 72 48 84 16 7 37
21 48 30 27 23 164 235 172 265 3 14 10 26 15 26 5 0 9 7 9 15 0 8 4 15 9 15
10 0 23 41 16 49 -3 2 -25 -17 -49 -42 -39 -42 -48 -46 -77 -42 -34 5 -32 4
29 -21 l33 -14 -30 -32 c-17 -18 -31 -37 -31 -41 0 -5 -5 -5 -12 -1 -7 4 -8 3
-4 -4 8 -13 -14 -52 -30 -52 -6 0 -33 11 -60 25 -27 14 -60 25 -74 25 -25 -1
-25 -1 -5 -16 11 -8 19 -19 18 -24 -3 -9 23 -7 33 2 9 10 35 -3 28 -13 -3 -5
0 -17 5 -26 9 -16 10 -16 11 3 0 12 7 21 15 21 8 0 15 -4 15 -8 0 -17 -37 -67
-74 -99 l-40 -35 23 38 c18 29 21 41 12 50 -8 8 -11 8 -11 -2 0 -6 -9 -32 -20
-57 -17 -36 -25 -44 -40 -39 -16 5 -19 3 -13 -11 4 -12 3 -15 -5 -10 -16 10
-15 69 1 109 15 35 15 75 2 97 -5 8 -5 15 1 17 6 2 6 39 0 99 -6 59 -6 107 0
123 10 29 7 81 -5 81 -5 0 -8 -10 -8 -22 -1 -50 -3 -57 -18 -52 -10 4 -13 18
-10 51 4 36 14 55 45 89 33 36 50 65 38 64 -2 0 -29 -29 -60 -63z"/>
<path d="M676 1555 c4 -22 7 -50 7 -62 -1 -13 5 -23 12 -23 7 0 15 -9 18 -21
3 -12 10 -18 15 -15 5 3 -1 27 -14 53 -13 27 -24 55 -24 63 0 8 -5 22 -11 30
-8 11 -9 4 -3 -25z"/>
<path d="M1426 1491 c-20 -22 -22 -20 29 -36 8 -2 15 0 15 5 0 6 -4 10 -9 10
-5 0 -11 10 -13 21 l-3 21 -19 -21z"/>
<path d="M1104 1485 c11 -8 31 -15 45 -15 31 1 12 14 -34 24 -28 6 -29 5 -11
-9z"/>
<path d="M1409 1399 c-6 -12 -9 -29 -6 -40 3 -10 -2 -24 -10 -30 -8 -7 -21
-26 -29 -43 l-15 -31 23 26 c50 57 57 68 46 71 -7 3 -9 12 -5 22 4 11 13 16
22 12 8 -3 15 -1 15 4 0 6 -5 10 -11 10 -5 0 -7 5 -4 10 3 6 2 10 -4 10 -6 0
-15 -9 -22 -21z"/>
<path d="M1055 1249 c-4 -6 -4 -13 -1 -16 3 -4 6 -1 6 5 0 16 38 -23 51 -51 9
-20 9 -20 3 3 -3 14 -6 33 -5 43 0 9 -5 17 -10 17 -6 0 -7 -6 -4 -12 4 -7 0
-5 -8 5 -16 20 -23 21 -32 6z"/>
<path d="M1043 1209 c-26 -10 -30 -41 -8 -59 19 -16 65 1 65 23 0 25 -33 46
-57 36z"/>
<path d="M980 1151 c-8 -6 -18 -7 -24 -4 -5 3 -6 1 -2 -5 4 -6 13 -9 21 -6 15
6 15 -12 0 -36 -8 -13 -6 -13 8 -2 9 8 21 11 27 7 17 -11 23 23 7 40 -18 18
-18 17 -37 6z"/>
<path d="M1073 1073 c8 -18 8 -29 -1 -43 -9 -14 -9 -21 0 -26 6 -4 8 -3 4 4
-3 6 -2 14 4 17 14 9 9 72 -6 72 -9 0 -9 -6 -1 -24z"/>
<path d="M997 1083 c-4 -3 -7 -17 -7 -29 0 -31 29 -46 54 -29 26 20 14 65 -18
65 -12 0 -26 -3 -29 -7z"/>
<path d="M954 1058 c0 -21 41 -67 60 -68 5 0 -4 10 -19 21 -19 16 -26 28 -22
45 2 14 -1 24 -7 24 -7 0 -12 -10 -12 -22z"/>
<path d="M908 840 c-34 -37 -115 -230 -102 -243 2 -2 -13 -42 -35 -88 -40 -86
-44 -110 -57 -324 -6 -95 -10 -124 -17 -132 -12 -12 -7 -53 6 -53 25 0 39 53
48 175 17 212 25 261 58 331 17 37 38 94 47 128 21 80 82 212 93 200 20 -22
31 -178 32 -459 l1 -300 25 -37 c24 -36 53 -51 53 -28 0 6 -9 26 -20 47 -16
30 -19 56 -19 170 0 74 -3 138 -6 143 -3 5 -1 11 4 15 6 3 8 11 6 18 -3 7 -6
92 -8 190 -2 120 -7 181 -15 189 -7 7 -12 19 -12 28 0 20 -31 50 -51 49 -8 0
-22 -9 -31 -19z"/>
</g>
</svg>
