<?xml version="1.0" encoding="UTF-8"?>
<svg version="1.1" xmlns="http://www.w3.org/2000/svg" width="197" height="300">
<path d="M0 0 C3.78695456 2.50975054 6.49309371 5.87369431 9.25 9.4375 C9.8275 10.0975 10.405 10.7575 11 11.4375 C13.81299002 15.93828403 14.93330487 21.19882933 14.25 26.4375 C10.59694262 31.98473528 5.47965829 36.40319217 0.25 40.4375 C1.27022872 43.18426963 2.35505344 45.61124222 3.875 48.125 C5.25 50.4375 5.25 50.4375 5.25 52.4375 C5.8996875 52.67597656 6.549375 52.91445312 7.21875 53.16015625 C11.19263644 54.83471922 14.94909436 56.8432551 18.75 58.875 C19.86955078 59.46764648 19.86955078 59.46764648 21.01171875 60.07226562 C34.39499459 67.1902734 34.39499459 67.1902734 36.1328125 71.7578125 C37.28367542 74.5182739 38.6497461 76.54837351 40.4375 78.9375 C49.95131071 92.22505608 56.15407802 104.97036455 55.25 121.4375 C54.86221341 123.50447572 54.34654563 125.45070153 53.734375 127.4609375 C53.17658523 129.73707961 53.1368003 131.84704067 53.0625 134.1875 C52.44497811 140.9493647 48.91674944 145.87802198 45.25 151.4375 C44.83943359 152.06446777 44.42886719 152.69143555 44.00585938 153.33740234 C41.49949343 157.15989224 38.96798283 160.96416627 36.38891602 164.73803711 C35.28747149 166.38158595 34.24403495 168.0635542 33.203125 169.74609375 C31.24274695 172.44749471 30.16174136 173.31266614 27.1875 174.625 C23.53898165 176.74765101 22.47227268 178.51477851 21.3125 182.5625 C19.06461378 192.35792472 19.08589075 202.60436384 18.96875 212.6015625 C18.95034058 213.83305023 18.93193115 215.06453796 18.91296387 216.33334351 C18.8546996 220.24301776 18.80173055 224.1527342 18.75 228.0625 C18.14751091 273.22665892 18.14751091 273.22665892 15.25 279.4375 C11.52164299 279.64132103 7.79471871 279.76529471 4.0625 279.875 C2.47985352 279.96297852 2.47985352 279.96297852 0.86523438 280.05273438 C-0.15634766 280.07529297 -1.17792969 280.09785156 -2.23046875 280.12109375 C-3.16785889 280.15775146 -4.10524902 280.19440918 -5.07104492 280.23217773 C-8.62342543 279.17840953 -9.84779499 277.56688092 -11.81044006 274.495224 C-13.42187887 270.96602253 -13.25662973 267.75364054 -13.0390625 263.94140625 C-12.99132104 262.25023133 -12.94618899 260.55898124 -12.90332031 258.86767578 C-12.87435669 257.98251282 -12.84539307 257.09734985 -12.81555176 256.18536377 C-12.7034225 251.48501823 -12.80500759 246.78988465 -12.8984375 242.08984375 C-12.91626282 241.13067047 -12.93408813 240.17149719 -12.95245361 239.18325806 C-12.98941608 237.23127692 -13.02772995 235.27932091 -13.06738281 233.32739258 C-13.10610732 231.34308975 -13.14087572 229.35870613 -13.171875 227.37426758 C-13.21779156 224.44589108 -13.27558674 221.51795427 -13.3359375 218.58984375 C-13.34748871 217.71674057 -13.35903992 216.84363739 -13.37094116 215.94407654 C-13.51338284 209.93051826 -14.39653012 204.29558599 -15.75 198.4375 C-19.66497133 207.04774623 -22.86661056 215.55988146 -25.4765625 224.6484375 C-26.75 228.4375 -26.75 228.4375 -28.80078125 231.8203125 C-32.23957183 238.44215572 -31.87077257 246.61937392 -32.3125 253.9375 C-32.4603469 256.29869491 -32.61348989 258.65905191 -32.78123474 261.0189209 C-32.88457134 262.47849012 -32.97676262 263.93891162 -33.05531311 265.40002441 C-33.41316606 270.5422933 -34.77228536 274.67526174 -36.75 279.4375 C-40.85393012 279.55341764 -44.95744106 279.62465601 -49.0625 279.6875 C-50.22974609 279.72101563 -51.39699219 279.75453125 -52.59960938 279.7890625 C-53.71787109 279.80195313 -54.83613281 279.81484375 -55.98828125 279.828125 C-57.01993408 279.84907227 -58.05158691 279.87001953 -59.11450195 279.89160156 C-61.75 279.4375 -61.75 279.4375 -63.58520508 277.65161133 C-65.4083103 274.18614471 -65.19057768 270.69546535 -65.125 266.875 C-65.10977295 265.56583618 -65.10977295 265.56583618 -65.09423828 264.23022461 C-64.62406427 243.3257049 -61.02368704 222.95518548 -56.45800781 202.60107422 C-55.83610002 199.82221865 -55.23724129 197.03991287 -54.6484375 194.25390625 C-53.05651406 186.89383436 -50.99052568 180.06378543 -47.92578125 173.15625 C-44.13943408 164.5340709 -44.13943408 164.5340709 -44.75 155.4375 C-45.64074932 153.39562849 -46.58313525 151.37587938 -47.5625 149.375 C-48.62912797 147.0644011 -49.69174209 144.75194436 -50.75 142.4375 C-51.17410156 141.54417969 -51.59820312 140.65085938 -52.03515625 139.73046875 C-55.97723431 130.08014862 -55.05814861 119.8161698 -54.69995117 109.58544922 C-54.59853918 107.3852074 -54.59853918 107.3852074 -55.75 105.4375 C-55.72573806 100.95510654 -55.35244228 96.49818155 -54.97119141 92.03417969 C-54.81536889 90.20489904 -54.67019107 88.37469615 -54.53271484 86.54394531 C-54.29097805 83.48260233 -53.9949175 80.43038841 -53.6875 77.375 C-53.61563477 76.40022705 -53.54376953 75.4254541 -53.46972656 74.42114258 C-52.86391453 69.01683323 -51.94909147 66.04287921 -47.80859375 62.375 C-40.03825267 56.4375 -40.03825267 56.4375 -36.75 56.4375 C-36.79125 55.32375 -36.8325 54.21 -36.875 53.0625 C-36.75 49.4375 -36.75 49.4375 -34.75 47.4375 C-31.625 47.3125 -31.625 47.3125 -28.75 47.4375 C-29.15992188 46.25414062 -29.56984375 45.07078125 -29.9921875 43.8515625 C-38.06303693 20.30182556 -38.06303693 20.30182556 -35.75 12.4375 C-33.5625 9.8125 -33.5625 9.8125 -30.75 7.4375 C-29.450625 6.1690625 -29.450625 6.1690625 -28.125 4.875 C-20.72063973 -1.12443037 -8.86871796 -4.49270581 0 0 Z M25.25 102.4375 C19.0958142 117.78647723 13.22693667 137.25051729 19.25 153.4375 C22.83852617 153.23244136 24.20774838 152.47483864 26.9375 150.0625 C30.25677849 145.76512691 30.54920434 140.67061544 31.25 135.4375 C31.80308158 131.96025564 32.24604217 130.44343675 34.25 127.4375 C34.742654 125.29618301 34.742654 125.29618301 34.9375 123 C35.02386719 122.23816406 35.11023438 121.47632813 35.19921875 120.69140625 C35.25072363 118.40538208 34.91016176 116.61653015 34.25 114.4375 C33.62351562 114.375625 32.99703125 114.31375 32.3515625 114.25 C31.65804687 113.981875 30.96453125 113.71375 30.25 113.4375 C29.2734375 111.1875 29.2734375 111.1875 28.625 108.4375 C28.21925914 106.7572555 27.77079122 105.08571835 27.25 103.4375 C26.59 103.1075 25.93 102.7775 25.25 102.4375 Z " fill="#2F0D01" transform="translate(109.75,20.5625)"/>
<path d="M0 0 C3 0.1875 3 0.1875 5 1.1875 C5.5625 3.953125 5.5625 3.953125 6 7.4375 C6.53778316 11.68214567 7.23644023 15.27827583 9 19.1875 C9.86625 18.1665625 9.86625 18.1665625 10.75 17.125 C11.4925 16.485625 12.235 15.84625 13 15.1875 C15.25 15.4375 15.25 15.4375 17 16.1875 C17 14.5375 17 12.8875 17 11.1875 C15.35 11.5175 13.7 11.8475 12 12.1875 C11.505 10.2075 11.505 10.2075 11 8.1875 C11.84304687 7.91035156 12.68609375 7.63320312 13.5546875 7.34765625 C14.65039062 6.98542969 15.74609375 6.62320313 16.875 6.25 C17.96554688 5.89035156 19.05609375 5.53070313 20.1796875 5.16015625 C22.90758682 4.28835926 22.90758682 4.28835926 25 3.1875 C26.67654729 3.46692455 28.34608154 3.79578247 30 4.1875 C30.495 5.6725 30.495 5.6725 31 7.1875 C31.99 7.1875 32.98 7.1875 34 7.1875 C35.12758089 10.57024266 34.81750262 11.95528223 34.0625 15.375 C33.86785156 16.27605469 33.67320313 17.17710938 33.47265625 18.10546875 C33.23869141 19.13607422 33.23869141 19.13607422 33 20.1875 C33.66 19.1975 34.32 18.2075 35 17.1875 C35.495 19.1675 35.495 19.1675 36 21.1875 C36.9590625 20.7234375 36.9590625 20.7234375 37.9375 20.25 C43.03217539 18.48245956 47.82479612 17.41711529 53 19.25 C55.59893431 21.76771761 55.76368265 23.6427398 56 27.1875 C56.66 27.1875 57.32 27.1875 58 27.1875 C58 27.8475 58 28.5075 58 29.1875 C59.65 29.8475 61.3 30.5075 63 31.1875 C62.525625 30.115 62.05125 29.0425 61.5625 27.9375 C60.46233668 25.37910135 59.54832997 22.92914983 59 20.1875 C64.34900834 23.60492199 65.72395091 27.54718981 68 33.1875 C68.83135178 35.08833207 69.67687126 36.98257698 70.52172852 38.87744141 C80 60.19913023 80 60.19913023 80 64.1875 C81.32 64.1875 82.64 64.1875 84 64.1875 C84.33 66.1675 84.66 68.1475 85 70.1875 C84.22269531 70.70828125 83.44539063 71.2290625 82.64453125 71.765625 C79.45655287 74.68519162 78.80444831 76.80065439 77.6875 80.9375 C77.36136719 82.10796875 77.03523438 83.2784375 76.69921875 84.484375 C76.46847656 85.37640625 76.23773438 86.2684375 76 87.1875 C75.01 87.1875 74.02 87.1875 73 87.1875 C72 86.1875 71 85.1875 70 84.1875 C69.01 84.1875 68.02 84.1875 67 84.1875 C66.875 77.5625 66.875 77.5625 68 74.1875 C68 73.1975 68 72.2075 68 71.1875 C67.34 71.1875 66.68 71.1875 66 71.1875 C66 69.8675 66 68.5475 66 67.1875 C65.38640625 67.12691406 64.7728125 67.06632812 64.140625 67.00390625 C62 66.1875 62 66.1875 60.734375 63.90234375 C60.40953125 62.98582031 60.0846875 62.06929687 59.75 61.125 C59.41484375 60.20589844 59.0796875 59.28679687 58.734375 58.33984375 C58.49203125 57.62957031 58.2496875 56.91929688 58 56.1875 C54.71396353 62.70143074 53.04094471 68.88433603 51.875 76.0625 C51.56622849 77.91512907 51.25138552 79.76675925 50.9296875 81.6171875 C50.79804199 82.42397949 50.66639648 83.23077148 50.53076172 84.06201172 C50 86.1875 50 86.1875 48 89.1875 C47.34 88.8575 46.68 88.5275 46 88.1875 C46.0825 89.280625 46.165 90.37375 46.25 91.5 C46 95.1875 46 95.1875 44.32421875 96.8984375 C41.52358371 98.45173088 39.74928547 98.55745938 36.5625 98.5 C35.63566406 98.49613281 34.70882812 98.49226563 33.75390625 98.48828125 C31 98.1875 31 98.1875 28.46875 97.15625 C25.664101 96.05569153 23.91374233 96.05759549 20.9375 96.375 C20.10089844 96.45105469 19.26429687 96.52710938 18.40234375 96.60546875 C15.91761653 97.03964563 15.91761653 97.03964563 13.96875 98.71484375 C10.63189106 101.21086721 6.99774075 100.75552431 3 100.1875 C1.31970006 99.21058143 -0.34928604 98.21361949 -2 97.1875 C-5.23556199 97.40599209 -5.23556199 97.40599209 -8 98.1875 C-8 99.5075 -8 100.8275 -8 102.1875 C-8.66 102.1875 -9.32 102.1875 -10 102.1875 C-10 103.5075 -10 104.8275 -10 106.1875 C-10.66 106.1875 -11.32 106.1875 -12 106.1875 C-12.495 107.1775 -12.495 107.1775 -13 108.1875 C-15.08094421 103.88688196 -17.05897659 99.55243556 -19 95.1875 C-19.63808594 93.83785156 -19.63808594 93.83785156 -20.2890625 92.4609375 C-24.23909287 82.82741019 -23.30764462 72.55177482 -22.94995117 62.33544922 C-22.84853918 60.1352074 -22.84853918 60.1352074 -24 58.1875 C-23.97573806 53.70510654 -23.60244228 49.24818155 -23.22119141 44.78417969 C-23.06536889 42.95489904 -22.92019107 41.12469615 -22.78271484 39.29394531 C-22.54097805 36.23260233 -22.2449175 33.18038841 -21.9375 30.125 C-21.86563477 29.15022705 -21.79376953 28.1754541 -21.71972656 27.17114258 C-21.11391453 21.76683323 -20.19909147 18.79287921 -16.05859375 15.125 C-8.28825267 9.1875 -8.28825267 9.1875 -5 9.1875 C-5.04125 8.07375 -5.0825 6.96 -5.125 5.8125 C-4.9695286 1.30382947 -4.56643704 0.28540231 0 0 Z " fill="#D2E5AC" transform="translate(78,67.8125)"/>
<path d="M0 0 C3.78695456 2.50975054 6.49309371 5.87369431 9.25 9.4375 C9.8275 10.0975 10.405 10.7575 11 11.4375 C13.81299002 15.93828403 14.93330487 21.19882933 14.25 26.4375 C10.59694262 31.98473528 5.47965829 36.40319217 0.25 40.4375 C1.27022872 43.18426963 2.35505344 45.61124222 3.875 48.125 C5.25 50.4375 5.25 50.4375 5.25 52.4375 C5.8996875 52.67597656 6.549375 52.91445312 7.21875 53.16015625 C11.19263644 54.83471922 14.94909436 56.8432551 18.75 58.875 C19.86955078 59.46764648 19.86955078 59.46764648 21.01171875 60.07226562 C34.39499459 67.1902734 34.39499459 67.1902734 36.1328125 71.7578125 C37.28367542 74.5182739 38.6497461 76.54837351 40.4375 78.9375 C49.95131071 92.22505608 56.15407802 104.97036455 55.25 121.4375 C54.86221341 123.50447572 54.34654563 125.45070153 53.734375 127.4609375 C53.17658523 129.73707961 53.1368003 131.84704067 53.0625 134.1875 C52.44497811 140.9493647 48.91674944 145.87802198 45.25 151.4375 C44.83943359 152.06446777 44.42886719 152.69143555 44.00585938 153.33740234 C41.50001581 157.15909554 38.96619169 160.96056967 36.39306641 164.73730469 C35.2801439 166.39266401 34.20775009 168.07504607 33.13671875 169.7578125 C31.25 172.4375 31.25 172.4375 28.25 174.4375 C25.91706666 174.48070247 23.5829866 174.47772391 21.25 174.4375 C19.57546201 174.728724 17.90449105 175.04820799 16.25 175.4375 C15.92 175.4375 15.59 175.4375 15.25 175.4375 C15.394375 174.2 15.53875 172.9625 15.6875 171.6875 C16.32833262 165.94747069 16.7921622 160.19456682 17.25 154.4375 C18.3225 154.045625 19.395 153.65375 20.5 153.25 C24.24884384 151.5914206 26.18783756 150.10356656 28.25 146.4375 C29.1595507 142.79929721 29.71189127 139.14565523 30.25 135.4375 C30.80746625 131.95972887 31.24511868 130.44482198 33.25 127.4375 C33.91613335 125.16211677 33.91613335 125.16211677 34.375 122.75 C34.54257813 121.94175781 34.71015625 121.13351563 34.8828125 120.30078125 C35.06457031 119.37845703 35.06457031 119.37845703 35.25 118.4375 C36.24 119.9225 36.24 119.9225 37.25 121.4375 C36.755 122.9225 36.755 122.9225 36.25 124.4375 C36.21045766 126.77049825 36.20598268 129.10458189 36.25 131.4375 C37.24 130.4475 38.23 129.4575 39.25 128.4375 C39.53875 129.241875 39.8275 130.04625 40.125 130.875 C40.98262568 133.5701468 40.98262568 133.5701468 43.25 134.4375 C43.48074219 133.54546875 43.71148437 132.6534375 43.94921875 131.734375 C44.27535156 130.56390625 44.60148437 129.3934375 44.9375 128.1875 C45.25074219 127.02734375 45.56398438 125.8671875 45.88671875 124.671875 C47.43612741 120.99591406 49.1160179 119.78798658 52.25 117.4375 C52.66809201 114.26901973 52.66809201 114.26901973 52.25 111.4375 C50.93 111.4375 49.61 111.4375 48.25 111.4375 C45.25812665 105.18898575 42.62230422 98.87871608 40.25 92.375 C37.29948518 84.32564745 33.84955204 76.6999506 29.25 69.4375 C29.09346234 71.69774386 29.09346234 71.69774386 30.8125 74.375 C32.25 77.4375 32.25 77.4375 31.25 80.4375 C30.816875 79.9425 30.38375 79.4475 29.9375 78.9375 C28.25259517 77.10531808 28.25259517 77.10531808 25.25 77.4375 C23.25 74.4375 23.25 74.4375 22.875 71.375 C22.58661411 68.38804059 22.58661411 68.38804059 20.5546875 67.23828125 C17.72705795 66.2557998 15.72016325 66.37742801 12.75 66.6875 C11.8115625 66.77515625 10.873125 66.8628125 9.90625 66.953125 C7.33315158 67.42233707 5.50375263 68.14052915 3.25 69.4375 C2.92 68.7775 2.59 68.1175 2.25 67.4375 C1.59 68.0975 0.93 68.7575 0.25 69.4375 C0.71336703 65.59817316 1.18311605 61.80536172 1.875 58 C2.060625 56.7315625 2.060625 56.7315625 2.25 55.4375 C1.92 55.1075 1.59 54.7775 1.25 54.4375 C0.59 55.0975 -0.07 55.7575 -0.75 56.4375 C-0.75 55.7775 -0.75 55.1175 -0.75 54.4375 C-1.74 53.9425 -1.74 53.9425 -2.75 53.4375 C-3.348125 53.04820313 -3.94625 52.65890625 -4.5625 52.2578125 C-6.76982889 51.18482842 -6.76982889 51.18482842 -9.1875 52.1171875 C-10.4559375 52.70886719 -10.4559375 52.70886719 -11.75 53.3125 C-15.24159764 54.91991233 -16.77934062 55.4375 -20.75 55.4375 C-20.42 56.7575 -20.09 58.0775 -19.75 59.4375 C-17.275 58.9425 -17.275 58.9425 -14.75 58.4375 C-14.75 60.0875 -14.75 61.7375 -14.75 63.4375 C-15.513125 63.540625 -16.27625 63.64375 -17.0625 63.75 C-19.92059424 64.48114039 -20.90742885 65.20701913 -22.75 67.4375 C-26.02868268 64.15881732 -26.66548935 60.25183797 -26.875 55.75390625 C-26.875 53.31178543 -26.83838495 50.8779066 -26.75 48.4375 C-27.41 48.4375 -28.07 48.4375 -28.75 48.4375 C-30.44615538 42.77917928 -32.11078664 37.1125697 -33.75 31.4375 C-34.09160156 30.26445313 -34.43320313 29.09140625 -34.78515625 27.8828125 C-37.52396045 17.87025388 -37.52396045 17.87025388 -35.75 12.4375 C-33.5625 9.8125 -33.5625 9.8125 -30.75 7.4375 C-29.88375 6.591875 -29.0175 5.74625 -28.125 4.875 C-20.72063973 -1.12443037 -8.86871796 -4.49270581 0 0 Z " fill="#C7D6A2" transform="translate(109.75,20.5625)"/>
<path d="M0 0 C0.66 0 1.32 0 2 0 C2 4.29 2 8.58 2 13 C3.65 13 5.3 13 7 13 C8.6446674 10.53673288 8.6446674 10.53673288 10 8 C10.99 8 11.98 8 13 8 C13.28875 7.360625 13.5775 6.72125 13.875 6.0625 C15 4 15 4 17 3 C16.7834375 4.175625 16.7834375 4.175625 16.5625 5.375 C15.85996815 9.90242749 15.42362505 14.43927072 15 19 C18.05270463 19.15811388 18.05270463 19.15811388 21 18 C21 19.65 21 21.3 21 23 C23.01432266 22.49743888 23.01432266 22.49743888 25 21 C26.29920746 17.45411499 26.29920746 17.45411499 27 14 C28.32 14 29.64 14 31 14 C31.185625 13.071875 31.185625 13.071875 31.375 12.125 C32 10 32 10 34 8 C34.495 9.98 34.495 9.98 35 12 C35.66 10.35 36.32 8.7 37 7 C39 10 39 10 39.9375 13.0625 C40.7712102 16.27630502 40.7712102 16.27630502 44 18 C44.6875 20.625 44.6875 20.625 45 23 C39.25 23.125 39.25 23.125 37 22 C37 24.31 37 26.62 37 29 C35.68 29.33 34.36 29.66 33 30 C33 30.66 33 31.32 33 32 C34.98 32 36.96 32 39 32 C39 29.69 39 27.38 39 25 C39.33 25 39.66 25 40 25 C40 33.58 40 42.16 40 51 C40.33 48.69 40.66 46.38 41 44 C41.66 44 42.32 44 43 44 C43.25523438 43.43796875 43.51046875 42.8759375 43.7734375 42.296875 C45.15692781 39.70613518 46.79938583 37.54892155 48.625 35.25 C49.57246094 34.05117187 49.57246094 34.05117187 50.5390625 32.828125 C51.02117187 32.22484375 51.50328125 31.6215625 52 31 C54.4746089 33.18655919 54.96157819 33.67981822 55.375 37.125 C55.01061312 40.89033106 54.14874115 43.62181649 52.859375 47.125 C51.48817452 51.71228887 50.81217491 56.42023337 50.09057617 61.14794922 C49.52018949 64.71903069 49.0361581 66.94576285 47 70 C46.01 69.505 46.01 69.505 45 69 C45.0825 70.093125 45.165 71.18625 45.25 72.3125 C45 76 45 76 43.32421875 77.7109375 C40.52358371 79.26423088 38.74928547 79.36995938 35.5625 79.3125 C34.63566406 79.30863281 33.70882812 79.30476563 32.75390625 79.30078125 C30 79 30 79 27.46875 77.96875 C24.664101 76.86819153 22.91374233 76.87009549 19.9375 77.1875 C19.10089844 77.26355469 18.26429687 77.33960938 17.40234375 77.41796875 C14.64606499 78.08575011 13.24423665 79.31236966 11 81 C7.92437321 81.66024189 5.08490509 81.60922722 2 81 C-0.75 78.625 -0.75 78.625 -3 76 C-3.825 75.67 -4.65 75.34 -5.5 75 C-8.78914107 73.68434357 -10.62511966 71.57844152 -13 69 C-11.576875 69.2784375 -11.576875 69.2784375 -10.125 69.5625 C-7.10131207 70.28686632 -7.10131207 70.28686632 -5 69 C-5.32613281 68.42894531 -5.65226562 67.85789062 -5.98828125 67.26953125 C-13.20612537 53.87713022 -13.46408086 40.62785863 -13.86425781 25.75634766 C-14.03932008 22.20157601 -14.48103613 18.70172632 -14.98974609 15.18041992 C-15.00214429 12.54403201 -14.47737093 11.1725166 -13 9 C-12.01 8.67 -11.02 8.34 -10 8 C-9.86722656 8.91523437 -9.73445313 9.83046875 -9.59765625 10.7734375 C-9.42105469 11.96195313 -9.24445313 13.15046875 -9.0625 14.375 C-8.88847656 15.55835937 -8.71445313 16.74171875 -8.53515625 17.9609375 C-8.16537214 20.90702381 -8.16537214 20.90702381 -7 23 C-6.1028125 22.7525 -6.1028125 22.7525 -5.1875 22.5 C-3 22 -3 22 0 22 C-0.33 21.67 -0.66 21.34 -1 21 C-1.10068807 18.40580146 -1.1387005 15.84396198 -1.125 13.25 C-1.12886719 12.53328125 -1.13273437 11.8165625 -1.13671875 11.078125 C-1.12969993 7.259888 -0.92035258 3.71062786 0 0 Z " fill="#D7F7B7" transform="translate(79,87)"/>
<path d="M0 0 C3 0.1875 3 0.1875 5 1.1875 C5.5625 3.953125 5.5625 3.953125 6 7.4375 C6.53778316 11.68214567 7.23644023 15.27827583 9 19.1875 C9.86625 18.1665625 9.86625 18.1665625 10.75 17.125 C11.4925 16.485625 12.235 15.84625 13 15.1875 C15.25 15.4375 15.25 15.4375 17 16.1875 C17 14.5375 17 12.8875 17 11.1875 C15.35 11.5175 13.7 11.8475 12 12.1875 C11.505 10.2075 11.505 10.2075 11 8.1875 C12.93558599 7.51529649 14.87354372 6.84991923 16.8125 6.1875 C17.89144531 5.81625 18.97039062 5.445 20.08203125 5.0625 C23 4.1875 23 4.1875 26 4.1875 C25.01 7.1575 24.02 10.1275 23 13.1875 C22.34 13.1875 21.68 13.1875 21 13.1875 C20.855625 13.93 20.71125 14.6725 20.5625 15.4375 C20.376875 16.345 20.19125 17.2525 20 18.1875 C19.9175 18.8475 19.835 19.5075 19.75 20.1875 C18.58367725 23.29769399 16.45771522 25.02236993 14 27.1875 C13.01 27.5175 12.02 27.8475 11 28.1875 C8.92258495 31.30362257 8.49975544 34.5226268 8 38.1875 C7.67 38.1875 7.34 38.1875 7 38.1875 C7 36.2075 7 34.2275 7 32.1875 C5.68 32.1875 4.36 32.1875 3 32.1875 C3 27.8975 3 23.6075 3 19.1875 C2.34 19.1875 1.68 19.1875 1 19.1875 C0.97105453 22.64581586 0.95322 26.10410072 0.9375 29.5625 C0.92912109 30.54734375 0.92074219 31.5321875 0.91210938 32.546875 C0.90888672 33.48789063 0.90566406 34.42890625 0.90234375 35.3984375 C0.89710693 36.26774902 0.89187012 37.13706055 0.88647461 38.03271484 C0.85877649 40.23799994 0.85877649 40.23799994 2 42.1875 C-2.44 43.42083333 -2.44 43.42083333 -5.25 42.25 C-6.11625 41.7240625 -6.11625 41.7240625 -7 41.1875 C-7.33 41.1875 -7.66 41.1875 -8 41.1875 C-8.66 36.8975 -9.32 32.6075 -10 28.1875 C-10.66 28.5175 -11.32 28.8475 -12 29.1875 C-13.24150922 32.91202767 -12.76857231 35.98820046 -12.25610352 39.81274414 C-11.87566753 43.34039028 -11.80779717 46.86412622 -11.70996094 50.40917969 C-11.301593 64.66450627 -9.53023252 76.30771333 -3 89.1875 C-5.97 89.6825 -5.97 89.6825 -9 90.1875 C-5.67913229 92.95750825 -5.67913229 92.95750825 -2 95.1875 C-1.67 94.5275 -1.34 93.8675 -1 93.1875 C-0.34 94.8375 0.32 96.4875 1 98.1875 C-0.11375 97.9090625 -0.11375 97.9090625 -1.25 97.625 C-3.94990963 97.19546892 -5.44631077 97.33627026 -8 98.1875 C-8 99.5075 -8 100.8275 -8 102.1875 C-8.66 102.1875 -9.32 102.1875 -10 102.1875 C-10 103.5075 -10 104.8275 -10 106.1875 C-10.66 106.1875 -11.32 106.1875 -12 106.1875 C-12.495 107.1775 -12.495 107.1775 -13 108.1875 C-15.08094421 103.88688196 -17.05897659 99.55243556 -19 95.1875 C-19.63808594 93.83785156 -19.63808594 93.83785156 -20.2890625 92.4609375 C-24.23909287 82.82741019 -23.30764462 72.55177482 -22.94995117 62.33544922 C-22.84853918 60.1352074 -22.84853918 60.1352074 -24 58.1875 C-23.97573806 53.70510654 -23.60244228 49.24818155 -23.22119141 44.78417969 C-23.06536889 42.95489904 -22.92019107 41.12469615 -22.78271484 39.29394531 C-22.54097805 36.23260233 -22.2449175 33.18038841 -21.9375 30.125 C-21.86563477 29.15022705 -21.79376953 28.1754541 -21.71972656 27.17114258 C-21.11391453 21.76683323 -20.19909147 18.79287921 -16.05859375 15.125 C-8.28825267 9.1875 -8.28825267 9.1875 -5 9.1875 C-5.04125 8.07375 -5.0825 6.96 -5.125 5.8125 C-4.9695286 1.30382947 -4.56643704 0.28540231 0 0 Z " fill="#C8D39D" transform="translate(78,67.8125)"/>
<path d="M0 0 C3.78695456 2.50975054 6.49309371 5.87369431 9.25 9.4375 C9.8275 10.0975 10.405 10.7575 11 11.4375 C13.81299002 15.93828403 14.93330487 21.19882933 14.25 26.4375 C12.05790825 29.88221561 10.06434921 31.93900567 6.25 33.4375 C5.59 32.1175 4.93 30.7975 4.25 29.4375 C3.38375 30.4275 3.38375 30.4275 2.5 31.4375 C0.25 33.4375 0.25 33.4375 -3.75 33.4375 C-3.75 31.1275 -3.75 28.8175 -3.75 26.4375 C-6.86785113 27.08394661 -6.86785113 27.08394661 -7.75 29.4375 C-8.554375 28.9734375 -8.554375 28.9734375 -9.375 28.5 C-12.1484957 27.25922561 -14.75042837 26.8465325 -17.75 26.4375 C-17.75 26.1075 -17.75 25.7775 -17.75 25.4375 C-13.79 25.4375 -9.83 25.4375 -5.75 25.4375 C-5.75 24.7775 -5.75 24.1175 -5.75 23.4375 C-6.36875 23.19 -6.9875 22.9425 -7.625 22.6875 C-9.75 21.4375 -9.75 21.4375 -10.6875 19.375 C-11.2134375 18.4159375 -11.2134375 18.4159375 -11.75 17.4375 C-14.30519921 16.62578772 -14.30519921 16.62578772 -16.75 16.4375 C-16.75 17.0975 -16.75 17.7575 -16.75 18.4375 C-15.76 18.4375 -14.77 18.4375 -13.75 18.4375 C-13.75 19.4275 -13.75 20.4175 -13.75 21.4375 C-15.73 22.0975 -17.71 22.7575 -19.75 23.4375 C-19.75 24.0975 -19.75 24.7575 -19.75 25.4375 C-20.74 25.7675 -21.73 26.0975 -22.75 26.4375 C-23.08 28.7475 -23.41 31.0575 -23.75 33.4375 C-24.08 32.1175 -24.41 30.7975 -24.75 29.4375 C-27.06 29.1075 -29.37 28.7775 -31.75 28.4375 C-31.75 30.7475 -31.75 33.0575 -31.75 35.4375 C-35.07063893 29.3617458 -36.75 22.39666087 -36.75 15.5 C-35.48760863 11.63392644 -33.84504621 10.05109458 -30.75 7.4375 C-29.88375 6.591875 -29.0175 5.74625 -28.125 4.875 C-20.72063973 -1.12443037 -8.86871796 -4.49270581 0 0 Z " fill="#280403" transform="translate(109.75,20.5625)"/>
<path d="M0 0 C4.51219512 -0.36585366 4.51219512 -0.36585366 6.75 1.3125 C8 3 8 3 9 6 C9.66 6.33 10.32 6.66 11 7 C11 7.66 11 8.32 11 9 C9.02 9.33 7.04 9.66 5 10 C8.05263664 10.98120464 9.94736336 10.98120464 13 10 C13 12.31 13 14.62 13 17 C15.94091587 16.81584568 15.94091587 16.81584568 19 16 C20.43637698 14.04836882 20.43637698 14.04836882 21 12 C21.66 12.33 22.32 12.66 23 13 C23.375 15.6875 23.375 15.6875 23 19 C21.176017 21.06398076 19.27236161 22.39041053 17 24 C18.02022872 26.74676963 19.10505344 29.17374222 20.625 31.6875 C22 34 22 34 22 36 C22.64839844 36.2371875 23.29679687 36.474375 23.96484375 36.71875 C27.96528432 38.40748167 31.73971688 40.44586933 35.5625 42.5 C37.06359779 43.3024656 38.56489344 44.10456122 40.06640625 44.90625 C40.72584229 45.26009766 41.38527832 45.61394531 42.06469727 45.97851562 C44.02912534 47.01537283 46.00970097 48.01385323 48 49 C44.78233082 50.60883459 42.25492643 49.2590663 38.93359375 48.22265625 C34.47906507 46.36610835 30.69372206 43.7093261 26.76171875 40.9375 C24.05878151 38.97813424 24.05878151 38.97813424 21.26953125 37.4375 C18.24461198 35.52154425 16.97171379 32.95757068 15 30 C14.5875 30.804375 14.175 31.60875 13.75 32.4375 C11.72061209 35.40910372 11.32333852 35.32077753 8 36 C5.98509585 36.75952442 3.99353568 37.56513876 2 38.37890625 C0 39 0 39 -4 39 C-3.67 40.32 -3.34 41.64 -3 43 C-0.525 42.505 -0.525 42.505 2 42 C2 43.65 2 45.3 2 47 C0.8553125 47.1546875 0.8553125 47.1546875 -0.3125 47.3125 C-3.17059424 48.04364039 -4.15742885 48.76951913 -6 51 C-9.27868268 47.72131732 -9.91548935 43.81433797 -10.125 39.31640625 C-10.125 36.87428543 -10.08838495 34.4404066 -10 32 C-10.66 32 -11.32 32 -12 32 C-14.44166784 25.16914355 -15.41640288 19.2484945 -15 12 C-12.6568787 12.25561323 -10.32156597 12.59270772 -8 13 C-7.67 13.66 -7.34 14.32 -7 15 C-7 13.02 -7 11.04 -7 9 C-5.68 9 -4.36 9 -3 9 C-3 8.34 -3 7.68 -3 7 C-1.02 6.34 0.96 5.68 3 5 C3 4.01 3 3.02 3 2 C2.01 2 1.02 2 0 2 C0 1.34 0 0.68 0 0 Z " fill="#795A4D" transform="translate(93,37)"/>
<path d="M0 0 C3 0.1875 3 0.1875 5 1.1875 C5.5625 3.953125 5.5625 3.953125 6 7.4375 C6.53778316 11.68214567 7.23644023 15.27827583 9 19.1875 C9.86625 18.1665625 9.86625 18.1665625 10.75 17.125 C11.4925 16.485625 12.235 15.84625 13 15.1875 C15.25 15.4375 15.25 15.4375 17 16.1875 C17 14.5375 17 12.8875 17 11.1875 C15.35 11.5175 13.7 11.8475 12 12.1875 C11.505 10.2075 11.505 10.2075 11 8.1875 C12.93558599 7.51529649 14.87354372 6.84991923 16.8125 6.1875 C17.89144531 5.81625 18.97039062 5.445 20.08203125 5.0625 C23 4.1875 23 4.1875 26 4.1875 C25.01 7.1575 24.02 10.1275 23 13.1875 C22.34 13.1875 21.68 13.1875 21 13.1875 C20.855625 13.93 20.71125 14.6725 20.5625 15.4375 C20.376875 16.345 20.19125 17.2525 20 18.1875 C19.9175 18.8475 19.835 19.5075 19.75 20.1875 C18.58367725 23.29769399 16.45771522 25.02236993 14 27.1875 C13.01 27.5175 12.02 27.8475 11 28.1875 C8.92258495 31.30362257 8.49975544 34.5226268 8 38.1875 C7.67 38.1875 7.34 38.1875 7 38.1875 C7 36.2075 7 34.2275 7 32.1875 C5.68 32.1875 4.36 32.1875 3 32.1875 C3 27.8975 3 23.6075 3 19.1875 C2.34 19.1875 1.68 19.1875 1 19.1875 C0.95101562 20.33089844 0.90203125 21.47429687 0.8515625 22.65234375 C0.77654811 24.14325473 0.70099972 25.63413892 0.625 27.125 C0.57859375 28.25711914 0.57859375 28.25711914 0.53125 29.41210938 C0.4273685 31.34257395 0.22104386 33.26692081 0 35.1875 C-0.99 35.6825 -0.99 35.6825 -2 36.1875 C-2.33 33.2175 -2.66 30.2475 -3 27.1875 C-4.65 27.1875 -6.3 27.1875 -8 27.1875 C-7.33989524 24.34199988 -6.48275034 21.66424001 -5.4375 18.9375 C-5.16808594 18.23109375 -4.89867188 17.5246875 -4.62109375 16.796875 C-4.41613281 16.26578125 -4.21117188 15.7346875 -4 15.1875 C-5.0725 15.8475 -6.145 16.5075 -7.25 17.1875 C-10.30980686 19.07045807 -11.1335864 19.1875 -15 19.1875 C-15 20.1775 -15 21.1675 -15 22.1875 C-15.66 22.1875 -16.32 22.1875 -17 22.1875 C-16.38487182 27.19640086 -15.7282448 32.19382136 -15 37.1875 C-17.6855594 34.5019406 -18.06049974 31.81128672 -19 28.1875 C-19.43909631 36.00991953 -18.38485956 43.11235315 -16.65625 50.70703125 C-16.04135973 53.96814574 -15.87845148 56.88036724 -16 60.1875 C-16.66 60.1875 -17.32 60.1875 -18 60.1875 C-18.33 58.2075 -18.66 56.2275 -19 54.1875 C-19.66 54.1875 -20.32 54.1875 -21 54.1875 C-20.835 54.991875 -20.67 55.79625 -20.5 56.625 C-19.23034894 65.67126383 -20.56982904 74.21062336 -22 83.1875 C-22.33 83.1875 -22.66 83.1875 -23 83.1875 C-22.99476318 82.50123535 -22.98952637 81.8149707 -22.98413086 81.10791016 C-22.96339044 78.00944936 -22.95034924 74.91100314 -22.9375 71.8125 C-22.92912109 70.73226562 -22.92074219 69.65203125 -22.91210938 68.5390625 C-22.90888672 67.5078125 -22.90566406 66.4765625 -22.90234375 65.4140625 C-22.89710693 64.46096191 -22.89187012 63.50786133 -22.88647461 62.52587891 C-22.84357401 60.16425594 -22.84357401 60.16425594 -24 58.1875 C-23.97573806 53.70510654 -23.60244228 49.24818155 -23.22119141 44.78417969 C-23.06536889 42.95489904 -22.92019107 41.12469615 -22.78271484 39.29394531 C-22.54097805 36.23260233 -22.2449175 33.18038841 -21.9375 30.125 C-21.86563477 29.15022705 -21.79376953 28.1754541 -21.71972656 27.17114258 C-21.11391453 21.76683323 -20.19909147 18.79287921 -16.05859375 15.125 C-8.28825267 9.1875 -8.28825267 9.1875 -5 9.1875 C-5.04125 8.07375 -5.0825 6.96 -5.125 5.8125 C-4.9695286 1.30382947 -4.56643704 0.28540231 0 0 Z " fill="#C1CC9A" transform="translate(78,67.8125)"/>
<path d="M0 0 C0.99 0.33 1.98 0.66 3 1 C3.12117188 2.13179687 3.24234375 3.26359375 3.3671875 4.4296875 C3.53600276 5.91151031 3.70529855 7.39327842 3.875 8.875 C3.95363281 9.62136719 4.03226563 10.36773437 4.11328125 11.13671875 C4.5080769 15.52555407 4.5080769 15.52555407 7 19 C5.68 19 4.36 19 3 19 C3.01160156 19.7734375 3.02320313 20.546875 3.03515625 21.34375 C3.08709845 27.33936364 2.91184156 33.07302983 2 39 C3.32 39 4.64 39 6 39 C6.66 38.34 7.32 37.68 8 37 C8 37.66 8 38.32 8 39 C9.32 39.33 10.64 39.66 12 40 C8.91190305 41.76462683 7.76687864 42 4 42 C2.2488427 43.4166747 2.2488427 43.4166747 1 45 C-1 43 -1 43 -1.16015625 41.1171875 C-1.12792969 40.37726563 -1.09570312 39.63734375 -1.0625 38.875 C-0.95538309 34.46892424 -1.36599121 30.35881045 -2 26 C-5.63 25.34 -9.26 24.68 -13 24 C-13.12375 25.216875 -13.2475 26.43375 -13.375 27.6875 C-13.79423936 31.08333884 -14.60430662 33.8596899 -16 37 C-16.35858516 38.32676508 -16.7018576 39.65835921 -17 41 C-17.33 41 -17.66 41 -18 41 C-18.495 38.525 -18.495 38.525 -19 36 C-20.65 36 -22.3 36 -24 36 C-24 37.65 -24 39.3 -24 41 C-23.34 41.33 -22.68 41.66 -22 42 C-22 42.66 -22 43.32 -22 44 C-23.9375 43.4375 -23.9375 43.4375 -26 42 C-26.6875 38.625 -26.6875 38.625 -27 35 C-27.30903983 33.66082739 -27.62942911 32.32346746 -28 31 C-27.01 30.67 -26.02 30.34 -25 30 C-24.01 30.66 -23.02 31.32 -22 32 C-22.47986031 26.43109483 -23.29915181 21.32932432 -25 16 C-25.33 17.65 -25.66 19.3 -26 21 C-27.95216435 19.04783565 -28.84826645 17.46800047 -30 15 C-31.32 15.33 -32.64 15.66 -34 16 C-34.33 15.34 -34.66 14.68 -35 14 C-37.52733235 13.34444881 -37.52733235 13.34444881 -40 13 C-40 13.66 -40 14.32 -40 15 C-40.66 15 -41.32 15 -42 15 C-41.67 14.01 -41.34 13.02 -41 12 C-39.9275 11.896875 -38.855 11.79375 -37.75 11.6875 C-34.10289657 11.31597023 -34.10289657 11.31597023 -32.07421875 9.5078125 C-29.62821528 7.72973842 -28.05163322 7.45923938 -25.0625 7.1875 C-24.22847656 7.09855469 -23.39445312 7.00960937 -22.53515625 6.91796875 C-19.62050585 7.01227947 -17.68873161 7.91042155 -15 9 C-12.20734324 9.31301046 -12.20734324 9.31301046 -9.375 9.25 C-8.43398437 9.25515625 -7.49296875 9.2603125 -6.5234375 9.265625 C-3.75424779 9.17167307 -3.75424779 9.17167307 -1 7 C-0.26393501 3.43230448 -0.26393501 3.43230448 0 0 Z " fill="#3D1808" transform="translate(124,156)"/>
<path d="M0 0 C1.875 1.625 1.875 1.625 3 3 C2.67 3.66 2.34 4.32 2 5 C2.66 5 3.32 5 4 5 C4 4.34 4 3.68 4 3 C4.78375 3.185625 5.5675 3.37125 6.375 3.5625 C8.97089775 4.25962266 8.97089775 4.25962266 11 3 C11 3.66 11 4.32 11 5 C12.32 4.34 13.64 3.68 15 3 C14.67 4.32 14.34 5.64 14 7 C14.99 7.33 15.98 7.66 17 8 C17.33 8.33 17.66 8.66 18 9 C18.33 7.68 18.66 6.36 19 5 C21.60644065 9.86535588 22 13.5048359 22 19 C22.43941523 21.26566343 22.43941523 21.26566343 23 23 C21.02 22.34 19.04 21.68 17 21 C17.17249973 27.23687536 17.17249973 27.23687536 20.0625 32.5625 C20.701875 33.036875 21.34125 33.51125 22 34 C21.34 35.32 20.68 36.64 20 38 C16.7 37.34 13.4 36.68 10 36 C10 35.67 10 35.34 10 35 C13.465 34.505 13.465 34.505 17 34 C14.36 33.34 11.72 32.68 9 32 C8.67 32.66 8.34 33.32 8 34 C6.515 33.505 6.515 33.505 5 33 C5.04125 32.05125 5.0825 31.1025 5.125 30.125 C5.34973818 26.89755144 5.34973818 26.89755144 3 25 C2.34 25.33 1.68 25.66 1 26 C0.06576355 22.98968256 -0.04449911 22.13349732 1 19 C4.465 18.505 4.465 18.505 8 18 C7.67 16.68 7.34 15.36 7 14 C6.34 14.66 5.68 15.32 5 16 C5 15.01 5 14.02 5 13 C4.67 13.66 4.34 14.32 4 15 C1.03 15 -1.94 15 -5 15 C-5 15.66 -5 16.32 -5 17 C-6.65 16.67 -8.3 16.34 -10 16 C-10 15.01 -10 14.02 -10 13 C-10.66 12.67 -11.32 12.34 -12 12 C-12.33 12.66 -12.66 13.32 -13 14 C-13.33 12.02 -13.66 10.04 -14 8 C-13.34 8 -12.68 8 -12 8 C-12 6.68 -12 5.36 -12 4 C-11.34 4 -10.68 4 -10 4 C-10 2.68 -10 1.36 -10 0 C-6.22975476 -2.61016978 -4.04832185 -1.80882466 0 0 Z " fill="#381503" transform="translate(80,166)"/>
<path d="M0 0 C0.33 0.66 0.66 1.32 1 2 C1.79494873 2.10642822 2.58989746 2.21285645 3.40893555 2.32250977 C6 3 6 3 7.39379883 5.10131836 C7.74466553 6.00503174 8.09553223 6.90874512 8.45703125 7.83984375 C8.84697266 8.82017578 9.23691406 9.80050781 9.63867188 10.81054688 C10.2197168 12.35838867 10.2197168 12.35838867 10.8125 13.9375 C11.21919922 14.96552734 11.62589844 15.99355469 12.04492188 17.05273438 C15 24.61674107 15 24.61674107 15 27 C16.32 27 17.64 27 19 27 C19.33 28.98 19.66 30.96 20 33 C18.83404297 33.78117187 18.83404297 33.78117187 17.64453125 34.578125 C14.45655287 37.49769162 13.80444831 39.61315439 12.6875 43.75 C12.36136719 44.92046875 12.03523437 46.0909375 11.69921875 47.296875 C11.46847656 48.18890625 11.23773438 49.0809375 11 50 C10.01 50 9.02 50 8 50 C7 49 6 48 5 47 C4.01 47 3.02 47 2 47 C1.875 40.375 1.875 40.375 3 37 C2.72428861 34.99124558 2.39764263 32.98821313 2 31 C2.66 30.67 3.32 30.34 4 30 C3.01 29.34 2.02 28.68 1 28 C1 27.34 1 26.68 1 26 C0.34 26 -0.32 26 -1 26 C-0.34 24.02 0.32 22.04 1 20 C0.34 20 -0.32 20 -1 20 C-1.66 20.99 -2.32 21.98 -3 23 C-2.74438677 20.6568787 -2.40729228 18.32156597 -2 16 C-1.34 15.67 -0.68 15.34 0 15 C-0.309375 13.88625 -0.309375 13.88625 -0.625 12.75 C-1 10 -1 10 0 8.0625 C1.4138672 5.14639889 0.70069242 3.08304663 0 0 Z " fill="#D7F8B7" transform="translate(143,105)"/>
<path d="M0 0 C0.66 0 1.32 0 2 0 C2 4.29 2 8.58 2 13 C3.32 13 4.64 13 6 13 C7.38670401 19.58684402 8.50454574 26.98824959 5 33 C4.505 30.525 4.505 30.525 4 28 C3.34 28 2.68 28 2 28 C1.67 28.66 1.34 29.32 1 30 C0.67 29.34 0.34 28.68 0 28 C-2.7972908 30.06756277 -3.02692273 31.14440371 -3.6875 34.6875 C-3.8421875 36.3271875 -3.8421875 36.3271875 -4 38 C-4.66 38 -5.32 38 -6 38 C-6.33 37.34 -6.66 36.68 -7 36 C-7.99 35.67 -8.98 35.34 -10 35 C-10.33 36.32 -10.66 37.64 -11 39 C-10.34 39 -9.68 39 -9 39 C-8 42 -8 42 -8.9375 44.1875 C-9.288125 44.785625 -9.63875 45.38375 -10 46 C-9.34 46.33 -8.68 46.66 -8 47 C-8.66 49.97 -9.32 52.94 -10 56 C-10.33 56 -10.66 56 -11 56 C-12.68588973 48.80319193 -13.36109688 41.87823141 -13.5625 34.5 C-13.6234563 32.5519922 -13.68723588 30.6040706 -13.75390625 28.65625 C-13.78500488 27.71523437 -13.81610352 26.77421875 -13.84814453 25.8046875 C-14.04151062 22.23332163 -14.48212629 18.71286023 -14.99194336 15.17382812 C-15.00169724 12.54205445 -14.47418587 11.16916347 -13 9 C-12.01 8.67 -11.02 8.34 -10 8 C-9.86722656 8.91523437 -9.73445313 9.83046875 -9.59765625 10.7734375 C-9.42105469 11.96195313 -9.24445313 13.15046875 -9.0625 14.375 C-8.88847656 15.55835937 -8.71445313 16.74171875 -8.53515625 17.9609375 C-8.16537214 20.90702381 -8.16537214 20.90702381 -7 23 C-6.1028125 22.7525 -6.1028125 22.7525 -5.1875 22.5 C-3 22 -3 22 0 22 C-0.33 21.67 -0.66 21.34 -1 21 C-1.10068807 18.40580146 -1.1387005 15.84396198 -1.125 13.25 C-1.12886719 12.53328125 -1.13273437 11.8165625 -1.13671875 11.078125 C-1.12969993 7.259888 -0.92035258 3.71062786 0 0 Z " fill="#CFE1A8" transform="translate(79,87)"/>
<path d="M0 0 C3 0.1875 3 0.1875 5 1.1875 C5 3.1675 5 5.1475 5 7.1875 C4.34 6.8575 3.68 6.5275 3 6.1875 C2.3503125 7.1775 2.3503125 7.1775 1.6875 8.1875 C1.130625 8.8475 0.57375 9.5075 0 10.1875 C-0.99 10.1875 -1.98 10.1875 -3 10.1875 C-5.73486777 11.92537565 -5.73486777 11.92537565 -8 14.1875 C-8 15.1775 -8 16.1675 -8 17.1875 C-11 19.1875 -11 19.1875 -15 19.1875 C-15 20.1775 -15 21.1675 -15 22.1875 C-15.66 22.1875 -16.32 22.1875 -17 22.1875 C-16.38487182 27.19640086 -15.7282448 32.19382136 -15 37.1875 C-17.6855594 34.5019406 -18.06049974 31.81128672 -19 28.1875 C-19.43909631 36.00991953 -18.38485956 43.11235315 -16.65625 50.70703125 C-16.04135973 53.96814574 -15.87845148 56.88036724 -16 60.1875 C-16.66 60.1875 -17.32 60.1875 -18 60.1875 C-18.33 58.2075 -18.66 56.2275 -19 54.1875 C-19.66 54.1875 -20.32 54.1875 -21 54.1875 C-20.835 54.991875 -20.67 55.79625 -20.5 56.625 C-19.23034894 65.67126383 -20.56982904 74.21062336 -22 83.1875 C-22.33 83.1875 -22.66 83.1875 -23 83.1875 C-22.99476318 82.50123535 -22.98952637 81.8149707 -22.98413086 81.10791016 C-22.96339044 78.00944936 -22.95034924 74.91100314 -22.9375 71.8125 C-22.92912109 70.73226562 -22.92074219 69.65203125 -22.91210938 68.5390625 C-22.90888672 67.5078125 -22.90566406 66.4765625 -22.90234375 65.4140625 C-22.89710693 64.46096191 -22.89187012 63.50786133 -22.88647461 62.52587891 C-22.84357401 60.16425594 -22.84357401 60.16425594 -24 58.1875 C-23.97573806 53.70510654 -23.60244228 49.24818155 -23.22119141 44.78417969 C-23.06536889 42.95489904 -22.92019107 41.12469615 -22.78271484 39.29394531 C-22.54097805 36.23260233 -22.2449175 33.18038841 -21.9375 30.125 C-21.86563477 29.15022705 -21.79376953 28.1754541 -21.71972656 27.17114258 C-21.11391453 21.76683323 -20.19909147 18.79287921 -16.05859375 15.125 C-8.28825267 9.1875 -8.28825267 9.1875 -5 9.1875 C-5.04125 8.07375 -5.0825 6.96 -5.125 5.8125 C-4.9695286 1.30382947 -4.56643704 0.28540231 0 0 Z " fill="#B1B186" transform="translate(78,67.8125)"/>
<path d="M0 0 C1.14412988 0.91690783 2.28188928 1.84180617 3.4140625 2.7734375 C6.72754466 5.0156935 10.45971672 5.49737866 14.359375 6.08984375 C13.28672074 8.03327633 12.20081308 9.96939774 11.109375 11.90234375 C10.50609375 12.98128906 9.9028125 14.06023437 9.28125 15.171875 C7.46586045 17.92816767 6.2066918 19.47804903 3.359375 21.08984375 C-0.078125 21.21484375 -0.078125 21.21484375 -3.640625 21.08984375 C-5.31516299 21.38106775 -6.98613395 21.70055174 -8.640625 22.08984375 C-8.970625 22.08984375 -9.300625 22.08984375 -9.640625 22.08984375 C-9.49625 20.85234375 -9.351875 19.61484375 -9.203125 18.33984375 C-8.56229238 12.59981444 -8.0984628 6.84691057 -7.640625 1.08984375 C-2.64644876 -1.46814896 -2.64644876 -1.46814896 0 0 Z " fill="#A19375" transform="translate(134.640625,173.91015625)"/>
<path d="M0 0 C0.66 0 1.32 0 2 0 C2 0.66 2 1.32 2 2 C2.99 2 3.98 2 5 2 C5 2.66 5 3.32 5 4 C4.34 4 3.68 4 3 4 C3.33 5.32 3.66 6.64 4 8 C4.99 8 5.98 8 7 8 C7.33 9.32 7.66 10.64 8 12 C8.66 11.67 9.32 11.34 10 11 C10.93619813 14.15506142 11.1057123 16.96586502 11.0625 20.25 C11.05347656 21.14203125 11.04445312 22.0340625 11.03515625 22.953125 C11.02355469 23.62859375 11.01195312 24.3040625 11 25 C10.34 24.01 9.68 23.02 9 22 C8.34 22.33 7.68 22.66 7 23 C6.5359375 21.7934375 6.5359375 21.7934375 6.0625 20.5625 C5.23664655 18.10919595 5.23664655 18.10919595 4 17 C3.37351563 17.86625 2.74703125 18.7325 2.1015625 19.625 C1.27638032 20.75024843 0.45084098 21.87523499 -0.375 23 C-0.7875 23.57234375 -1.2 24.1446875 -1.625 24.734375 C-2.70171719 26.19315312 -3.84666578 27.60100976 -5 29 C-5.66 29 -6.32 29 -7 29 C-6.6596875 30.11375 -6.6596875 30.11375 -6.3125 31.25 C-6 34 -6 34 -9 38 C-9 31.07 -9 24.14 -9 17 C-10.98 17 -12.96 17 -15 17 C-15 16.34 -15 15.68 -15 15 C-14.01 14.67 -13.02 14.34 -12 14 C-11.67 11.69 -11.34 9.38 -11 7 C-5.06 8.485 -5.06 8.485 1 10 C1 9.34 1 8.68 1 8 C-0.32 7.34 -1.64 6.68 -3 6 C-3 5.01 -3 4.02 -3 3 C-2.01 3 -1.02 3 0 3 C0 2.01 0 1.02 0 0 Z " fill="#C3CF9B" transform="translate(127,102)"/>
<path d="M0 0 C6.79634998 4.34211249 8.72522798 11.60699092 11 19 C10.34 19.66 9.68 20.32 9 21 C9 20.34 9 19.68 9 19 C8.34 19 7.68 19 7 19 C7.20625 19.94875 7.4125 20.8975 7.625 21.875 C7.74875 22.90625 7.8725 23.9375 8 25 C7.34 25.66 6.68 26.32 6 27 C6.32198966 30.09926819 6.32198966 30.09926819 7 33 C6.01 33 5.02 33 4 33 C4 34.32 4 35.64 4 37 C5.98 36.505 5.98 36.505 8 36 C7.01 38.31 6.02 40.62 5 43 C5.66 43 6.32 43 7 43 C7.33 43.66 7.66 44.32 8 45 C8.99 45.66 9.98 46.32 11 47 C9.515 47.495 9.515 47.495 8 48 C7.67 48.99 7.34 49.98 7 51 C7 49.68 7 48.36 7 47 C6.071875 46.9071875 6.071875 46.9071875 5.125 46.8125 C3 46 3 46 1.90625 43.84375 C0.91420935 40.73079485 0.58972079 37.94409858 0.375 34.6875 C0.26285156 33.08455078 0.26285156 33.08455078 0.1484375 31.44921875 C0.07496094 30.23685547 0.07496094 30.23685547 0 29 C-0.66 29.33 -1.32 29.66 -2 30 C-2.33 27.36 -2.66 24.72 -3 22 C-2.01 22 -1.02 22 0 22 C-0.66 21.67 -1.32 21.34 -2 21 C-2 20.34 -2 19.68 -2 19 C-1.34 19 -0.68 19 0 19 C-0.33 18.319375 -0.66 17.63875 -1 16.9375 C-2.17307315 13.49159762 -2.14180493 10.61602578 -2 7 C-1.67 7.66 -1.34 8.32 -1 9 C0.64363134 9.72159424 2.31050386 10.39351421 4 11 C3.525625 9.9275 3.05125 8.855 2.5625 7.75 C1.46233668 5.19160135 0.54832997 2.74164983 0 0 Z " fill="#D3E7AD" transform="translate(137,88)"/>
<path d="M0 0 C4.51219512 -0.36585366 4.51219512 -0.36585366 6.75 1.3125 C8 3 8 3 9 6 C9.66 6.33 10.32 6.66 11 7 C11 7.66 11 8.32 11 9 C9.02 9.33 7.04 9.66 5 10 C6.32 10.66 7.64 11.32 9 12 C9 15.3 9 18.6 9 22 C3.70558305 22.50423019 1.18586481 21.18923033 -3 18 C-3.66 18.99 -4.32 19.98 -5 21 C-4.505 21.45375 -4.01 21.9075 -3.5 22.375 C-2 24 -2 24 -2 26 C-3.65 26 -5.3 26 -7 26 C-8.7946383 20.61608511 -7.88373438 15.52333987 -7 10 C-5.68 9.67 -4.36 9.34 -3 9 C-3 8.34 -3 7.68 -3 7 C-1.02 6.34 0.96 5.68 3 5 C3 4.01 3 3.02 3 2 C2.01 2 1.02 2 0 2 C0 1.34 0 0.68 0 0 Z " fill="#866957" transform="translate(93,37)"/>
<path d="M0 0 C4.02370028 0.69374143 7.11431437 2.11431437 10 5 C9.01 6.65 8.02 8.3 7 10 C7.99 10.99 8.98 11.98 10 13 C8.35 13 6.7 13 5 13 C4.67 13.66 4.34 14.32 4 15 C3.01 15.33 2.02 15.66 1 16 C0.855625 16.969375 0.71125 17.93875 0.5625 18.9375 C0 22 0 22 -1 23 C-3.9375 23.25 -3.9375 23.25 -7 23 C-7.66 22.01 -8.32 21.02 -9 20 C-8.125 16.8125 -8.125 16.8125 -7 14 C-6.34 14 -5.68 14 -5 14 C-4.67 11.69 -4.34 9.38 -4 7 C-3.01 7 -2.02 7 -1 7 C-1 6.01 -1 5.02 -1 4 C-1 1 -1 1 0 0 Z " fill="#D8FAB8" transform="translate(145,155)"/>
<path d="M0 0 C3.60210923 2.28133584 4.45011735 4.12245475 6 8 C7.02026003 9.52904405 8.08620546 11.02824711 9.1875 12.5 C18.69699739 25.78153184 24.91340119 38.53753667 24 55 C23.51287492 57.77449501 22.83039707 60.30120951 22 63 C21.67 63 21.34 63 21 63 C20.875 56.25 20.875 56.25 22 54 C22.12114921 52.35744209 22.17540767 50.70947522 22.1875 49.0625 C22.20876953 47.74958984 22.20876953 47.74958984 22.23046875 46.41015625 C22.16663349 43.73755665 22.16663349 43.73755665 20 41 C20 40.01 20 39.02 20 38 C18.515 37.505 18.515 37.505 17 37 C17 35.68 17 34.36 17 33 C16.01 32.34 15.02 31.68 14 31 C14.33 28.69 14.66 26.38 15 24 C12.60931266 22.89363605 12.60931266 22.89363605 10 22 C9.34 22.33 8.68 22.66 8 23 C7.52949219 21.98679687 7.05898437 20.97359375 6.57421875 19.9296875 C5.9453571 18.57810425 5.31644834 17.22654291 4.6875 15.875 C4.37876953 15.20984375 4.07003906 14.5446875 3.75195312 13.859375 C1.89592349 9.87379557 -0.01400162 5.92311064 -2 2 C-1.34 2 -0.68 2 0 2 C0 1.34 0 0.68 0 0 Z " fill="#A08A60" transform="translate(141,87)"/>
<path d="M0 0 C0.99 0.33 1.98 0.66 3 1 C3 1.66 3 2.32 3 3 C3.61875 3.12375 4.2375 3.2475 4.875 3.375 C7 4 7 4 9 6 C8.68506518 10.80275602 7.96049742 14.58888079 6 19 C5.64141484 20.32676508 5.2981424 21.65835921 5 23 C4.67 23 4.34 23 4 23 C3.67 21.35 3.34 19.7 3 18 C1.35 18 -0.3 18 -2 18 C-2 19.65 -2 21.3 -2 23 C-1.34 23.33 -0.68 23.66 0 24 C0 24.66 0 25.32 0 26 C-1.9375 25.4375 -1.9375 25.4375 -4 24 C-4.6875 20.625 -4.6875 20.625 -5 17 C-5.30903983 15.66082739 -5.62942911 14.32346746 -6 13 C-5.01 12.67 -4.02 12.34 -3 12 C-2.01 12.66 -1.02 13.32 0 14 C-0.14168137 12.56208484 -0.28851043 11.1246763 -0.4375 9.6875 C-0.51871094 8.88699219 -0.59992188 8.08648437 -0.68359375 7.26171875 C-0.95265693 4.83912821 -0.95265693 4.83912821 -2 2 C-1.34 2 -0.68 2 0 2 C0 1.34 0 0.68 0 0 Z " fill="#5B3C22" transform="translate(102,174)"/>
<path d="M0 0 C0.88318328 2.91291973 1.03773246 5.01240496 0.51171875 8.00390625 C0.38216797 8.74447266 0.25261719 9.48503906 0.11914062 10.24804688 C-0.02330078 11.01181641 -0.16574219 11.77558594 -0.3125 12.5625 C-0.44333984 13.33013672 -0.57417969 14.09777344 -0.70898438 14.88867188 C-1.35887447 18.48975368 -1.94726905 20.92090358 -4 24 C-4.66 23.67 -5.32 23.34 -6 23 C-6 25.31 -6 27.62 -6 30 C-6.33 30 -6.66 30 -7 30 C-7.10957031 29.30132812 -7.21914062 28.60265625 -7.33203125 27.8828125 C-7.49058594 26.97273438 -7.64914063 26.06265625 -7.8125 25.125 C-8.03873047 23.76761719 -8.03873047 23.76761719 -8.26953125 22.3828125 C-8.83051301 19.65587522 -8.83051301 19.65587522 -12 18 C-11.01 18 -10.02 18 -9 18 C-9.37125 16.88625 -9.7425 15.7725 -10.125 14.625 C-10.44140625 12.4453125 -10.44140625 12.4453125 -10 10 C-7.04597703 6.22867954 -3.62997934 3.1132336 0 0 Z " fill="#CAD2A2" transform="translate(130,133)"/>
<path d="M0 0 C0.66 0 1.32 0 2 0 C3 3 3 3 1.9609375 5.41796875 C0.31886645 8.28552633 -1.33595664 11.14513774 -3 14 C-3.41894531 14.825 -3.83789062 15.65 -4.26953125 16.5 C-5.37941914 18.5787198 -6.36187688 20.30522709 -8 22 C-12.49065077 22.77425013 -14.20189934 22.53206711 -18 20 C-16.68 19.67 -15.36 19.34 -14 19 C-13.67 16.69 -13.34 14.38 -13 12 C-11.68 12 -10.36 12 -9 12 C-8.67 11.01 -8.34 10.02 -8 9 C-6.68 9 -5.36 9 -4 9 C-6.475 8.01 -6.475 8.01 -9 7 C-8.360625 6.896875 -7.72125 6.79375 -7.0625 6.6875 C-6.0415625 6.3471875 -6.0415625 6.3471875 -5 6 C-4.67 5.01 -4.34 4.02 -4 3 C-1.9375 2.3125 -1.9375 2.3125 0 2 C0 1.34 0 0.68 0 0 Z " fill="#CAD4A2" transform="translate(158,158)"/>
<path d="M0 0 C2.03833424 1.2739589 4.03852126 2.61061923 6 4 C6 4.66 6 5.32 6 6 C6.66 6 7.32 6 8 6 C8.33 5.34 8.66 4.68 9 4 C9.33 4.99 9.66 5.98 10 7 C8.02 7.33 6.04 7.66 4 8 C7.32086771 10.77000825 7.32086771 10.77000825 11 13 C11.33 12.34 11.66 11.68 12 11 C12.66 12.65 13.32 14.3 14 16 C13.2575 15.814375 12.515 15.62875 11.75 15.4375 C9.05009037 15.00796892 7.55368923 15.14877026 5 16 C5 17.32 5 18.64 5 20 C4.34 20 3.68 20 3 20 C3 20.99 3 21.98 3 23 C2.34 23 1.68 23 1 23 C0.566875 21.39125 0.566875 21.39125 0.125 19.75 C-0.80789174 16.17612429 -0.80789174 16.17612429 -2.1875 13.8125 C-3.23234718 11.48168705 -2.89047347 10.34761189 -2 8 C-1.67 7.67 -1.34 7.34 -1 7 C-0.63239269 4.67182036 -0.29758419 2.3381615 0 0 Z " fill="#D2E4A8" transform="translate(65,150)"/>
<path d="M0 0 C0.66 0.33 1.32 0.66 2 1 C1.01 3.97 0.02 6.94 -1 10 C-1.66 10 -2.32 10 -3 10 C-3.33 11.65 -3.66 13.3 -4 15 C-4.928125 15.12375 -4.928125 15.12375 -5.875 15.25 C-8.18437567 15.81258459 -8.18437567 15.81258459 -9.25 18.0625 C-9.4975 18.701875 -9.745 19.34125 -10 20 C-11.32 20 -12.64 20 -14 20 C-14.33 19.01 -14.66 18.02 -15 17 C-13.0625 14.3125 -13.0625 14.3125 -11 12 C-9.68 12.33 -8.36 12.66 -7 13 C-7 11.35 -7 9.7 -7 8 C-8.65 8.33 -10.3 8.66 -12 9 C-12.33 7.68 -12.66 6.36 -13 5 C-12.14535156 4.72285156 -11.29070312 4.44570312 -10.41015625 4.16015625 C-9.30542969 3.79792969 -8.20070313 3.43570313 -7.0625 3.0625 C-5.96035156 2.70285156 -4.85820313 2.34320313 -3.72265625 1.97265625 C-1.11876525 1.26143332 -1.11876525 1.26143332 0 0 Z " fill="#937B68" transform="translate(102,71)"/>
<path d="M0 0 C1.125 1.5625 1.125 1.5625 1.125 3.5625 C-2.175 4.2225 -5.475 4.8825 -8.875 5.5625 C-9.535 7.5425 -10.195 9.5225 -10.875 11.5625 C-12.82716435 9.61033565 -13.72326645 8.03050047 -14.875 5.5625 C-16.195 5.8925 -17.515 6.2225 -18.875 6.5625 C-19.205 5.9025 -19.535 5.2425 -19.875 4.5625 C-22.40233235 3.90694881 -22.40233235 3.90694881 -24.875 3.5625 C-24.875 4.2225 -24.875 4.8825 -24.875 5.5625 C-25.535 5.5625 -26.195 5.5625 -26.875 5.5625 C-26.545 4.5725 -26.215 3.5825 -25.875 2.5625 C-24.8025 2.459375 -23.73 2.35625 -22.625 2.25 C-18.97349727 1.86861339 -18.97349727 1.86861339 -16.875 0.0625 C-12.26362735 -3.39602949 -4.61321765 -3.5368002 0 0 Z " fill="#472314" transform="translate(108.875,165.4375)"/>
<path d="M0 0 C5 5 5 5 7.1875 7.4375 C10.50833734 10.4631518 14.04849998 12.44225546 17.98828125 14.5703125 C18.65214844 15.04210937 19.31601563 15.51390625 20 16 C20 16.99 20 17.98 20 19 C18.35 19 16.7 19 15 19 C14.67 18.34 14.34 17.68 14 17 C13.34 17.33 12.68 17.66 12 18 C11.34 17.34 10.68 16.68 10 16 C7.42938689 15.35232207 7.42938689 15.35232207 5 15 C4.814375 16.670625 4.814375 16.670625 4.625 18.375 C4 22 4 22 2 24 C2.46336703 20.16067316 2.93311605 16.36786172 3.625 12.5625 C3.810625 11.2940625 3.810625 11.2940625 4 10 C3.67 9.67 3.34 9.34 3 9 C2.34 9.66 1.68 10.32 1 11 C1 10.34 1 9.68 1 9 C0.34 8.67 -0.32 8.34 -1 8 C-2.125 5.9375 -2.125 5.9375 -3 4 C-2.01 2.68 -1.02 1.36 0 0 Z " fill="#BFC999" transform="translate(108,66)"/>
<path d="M0 0 C1.875 1.625 1.875 1.625 3 3 C2.67 3.66 2.34 4.32 2 5 C2.66 5 3.32 5 4 5 C4 4.34 4 3.68 4 3 C6.475 3.495 6.475 3.495 9 4 C9.33 4.99 9.66 5.98 10 7 C8.39679026 7.19551338 6.79237014 7.38111983 5.1875 7.5625 C4.29417969 7.66691406 3.40085937 7.77132812 2.48046875 7.87890625 C0 8 0 8 -3 7 C-3 7.66 -3 8.32 -3 9 C-5.475 8.01 -5.475 8.01 -8 7 C-8.33 7.99 -8.66 8.98 -9 10 C-9.66 9.67 -10.32 9.34 -11 9 C-10.93993922 7.54052295 -10.8511311 6.08220728 -10.75 4.625 C-10.70359375 3.81289062 -10.6571875 3.00078125 -10.609375 2.1640625 C-10 0 -10 0 -8.14453125 -1.33203125 C-4.91879772 -2.33676792 -3.020356 -1.34952077 0 0 Z " fill="#2A0902" transform="translate(80,166)"/>
<path d="M0 0 C2.98479194 4.47718792 4 8.63824093 4 14 C1.03 13.505 1.03 13.505 -2 13 C-2.99 15.31 -3.98 17.62 -5 20 C-6.74834267 17.377486 -7.51529754 16.00515522 -8 13 C-7.67 12.34 -7.34 11.68 -7 11 C-7.99 11.33 -8.98 11.66 -10 12 C-10.66 11.34 -11.32 10.68 -12 10 C-10.71283353 8.99421411 -9.42011342 7.99553202 -8.125 7 C-7.40570313 6.443125 -6.68640625 5.88625 -5.9453125 5.3125 C-4 4 -4 4 -2 4 C-1.34 2.68 -0.68 1.36 0 0 Z " fill="#B7B88F" transform="translate(81,72)"/>
<path d="M0 0 C0.33 0.66 0.66 1.32 1 2 C4.62885324 2.15149298 4.62885324 2.15149298 8 1 C8 1.99 8 2.98 8 4 C6.02 4.66 4.04 5.32 2 6 C2 6.66 2 7.32 2 8 C1.01 8.33 0.02 8.66 -1 9 C-1.33 11.31 -1.66 13.62 -2 16 C-2.33 14.68 -2.66 13.36 -3 12 C-5.31 11.67 -7.62 11.34 -10 11 C-10 13.31 -10 15.62 -10 18 C-11.88391785 14.73454239 -12.49287967 11.71888239 -13 8 C-12.01 7.67 -11.02 7.34 -10 7 C-10 6.34 -10 5.68 -10 5 C-9.01 5 -8.02 5 -7 5 C-7 5.66 -7 6.32 -7 7 C-6.34 7 -5.68 7 -5 7 C-4.67 5.02 -4.34 3.04 -4 1 C-3.01 1.33 -2.02 1.66 -1 2 C-0.67 1.34 -0.34 0.68 0 0 Z " fill="#37130A" transform="translate(88,38)"/>
<path d="M0 0 C0.66 0 1.32 0 2 0 C2 0.66 2 1.32 2 2 C2.99 2 3.98 2 5 2 C5 2.66 5 3.32 5 4 C4.34 4 3.68 4 3 4 C3.33 5.32 3.66 6.64 4 8 C4.99 8 5.98 8 7 8 C7.33 9.32 7.66 10.64 8 12 C8.66 11.67 9.32 11.34 10 11 C10.93619813 14.15506142 11.1057123 16.96586502 11.0625 20.25 C11.05347656 21.14203125 11.04445312 22.0340625 11.03515625 22.953125 C11.02355469 23.62859375 11.01195312 24.3040625 11 25 C10.34 24.01 9.68 23.02 9 22 C8.34 22.33 7.68 22.66 7 23 C4.875 16.375 4.875 16.375 6 13 C2.7 13 -0.6 13 -4 13 C-4 12.01 -4 11.02 -4 10 C-2.35 10 -0.7 10 1 10 C1 9.34 1 8.68 1 8 C-0.32 7.34 -1.64 6.68 -3 6 C-3 5.01 -3 4.02 -3 3 C-2.01 3 -1.02 3 0 3 C0 2.01 0 1.02 0 0 Z " fill="#C6CB92" transform="translate(127,102)"/>
<path d="M0 0 C0.66 0.33 1.32 0.66 2 1 C2.375 3.6875 2.375 3.6875 2 7 C0.05874656 8.73473712 -1.94272868 10.4045651 -4 12 C-4.94436349 14.16531168 -4.94436349 14.16531168 -5 16 C-5.61875 16.144375 -6.2375 16.28875 -6.875 16.4375 C-9.03258322 16.93152225 -9.03258322 16.93152225 -11 18 C-12.125 11.375 -12.125 11.375 -11 8 C-10.34 8 -9.68 8 -9 8 C-9 7.01 -9 6.02 -9 5 C-7.88625 4.9175 -6.7725 4.835 -5.625 4.75 C-1.94246056 4.42126213 -1.94246056 4.42126213 -0.5625 1.9375 C-0.376875 1.298125 -0.19125 0.65875 0 0 Z " fill="#57281D" transform="translate(114,49)"/>
<path d="M0 0 C0.33 0 0.66 0 1 0 C1.66 2.64 2.32 5.28 3 8 C3.33 7.01 3.66 6.02 4 5 C4.66 5 5.32 5 6 5 C6 12.59 6 20.18 6 28 C4.02 28 2.04 28 0 28 C-0.66 28.66 -1.32 29.32 -2 30 C-2.33 25.71 -2.66 21.42 -3 17 C-2.34 17 -1.68 17 -1 17 C-0.67 18.98 -0.34 20.96 0 23 C0.66 23 1.32 23 2 23 C2 22.01 2 21.02 2 20 C2.66 20 3.32 20 4 20 C3.71125 19.14277344 3.4225 18.28554687 3.125 17.40234375 C-0.56239016 6.0456942 -0.56239016 6.0456942 0 0 Z " fill="#B3BD8D" transform="translate(60,105)"/>
<path d="M0 0 C2.25 0.125 2.25 0.125 5 1 C9 6.08108108 9 6.08108108 9 9 C9.64839844 9.2371875 10.29679687 9.474375 10.96484375 9.71875 C14.96528432 11.40748167 18.73971688 13.44586933 22.5625 15.5 C24.06359779 16.3024656 25.56489344 17.10456122 27.06640625 17.90625 C27.72584229 18.26009766 28.38527832 18.61394531 29.06469727 18.97851562 C31.02912534 20.01537283 33.00970097 21.01385323 35 22 C31.78233082 23.60883459 29.25492643 22.2590663 25.93359375 21.22265625 C21.47906507 19.36610835 17.69372206 16.7093261 13.76171875 13.9375 C11.05878151 11.97813424 11.05878151 11.97813424 8.26953125 10.4375 C5.24461198 8.52154425 3.97171379 5.95757068 2 3 C1.5875 3.804375 1.175 4.60875 0.75 5.4375 C-1 8 -1 8 -2.9375 8.75 C-3.9584375 8.87375 -3.9584375 8.87375 -5 9 C-6.11375 9.2784375 -6.11375 9.2784375 -7.25 9.5625 C-7.8275 9.706875 -8.405 9.85125 -9 10 C-8.2575 9.278125 -7.515 8.55625 -6.75 7.8125 C-4.30709485 5.31407427 -2.1318953 2.76356798 0 0 Z " fill="#836547" transform="translate(106,64)"/>
<path d="M0 0 C0.99 0.33 1.98 0.66 3 1 C3 1.99 3 2.98 3 4 C4.75032844 3.85816304 6.50025534 3.71136571 8.25 3.5625 C9.71179688 3.44068359 9.71179688 3.44068359 11.203125 3.31640625 C13.56461753 3.04925416 15.71901065 2.64628032 18 2 C17.66594467 5.00649796 16.76111354 6.30914718 14.875 8.75 C12 11 12 11 8.5 11.75 C4.17664381 10.82356653 3.20914301 9.47549495 0.84765625 5.921875 C0 4 0 4 0 0 Z " fill="#846654" transform="translate(80,60)"/>
<path d="M0 0 C0.66 0.33 1.32 0.66 2 1 C1.67 4.3 1.34 7.6 1 11 C1.66 11 2.32 11 3 11 C3 9.68 3 8.36 3 7 C5.64 7 8.28 7 11 7 C9.59808647 9.99254618 7.96632511 12.5954611 6 15.25 C5.484375 15.95640625 4.96875 16.6628125 4.4375 17.390625 C3.963125 17.92171875 3.48875 18.4528125 3 19 C2.34 19 1.68 19 1 19 C1.226875 19.7425 1.45375 20.485 1.6875 21.25 C2 24 2 24 -1 28 C-0.67 18.76 -0.34 9.52 0 0 Z " fill="#CEE0AA" transform="translate(119,112)"/>
<path d="M0 0 C0.66 1.32 1.32 2.64 2 4 C2.66 3.34 3.32 2.68 4 2 C5.26305335 7.07476794 6.27036084 11.72796354 6 17 C5.34 17 4.68 17 4 17 C3.67 15.02 3.34 13.04 3 11 C2.34 11 1.68 11 1 11 C1.165 11.804375 1.33 12.60875 1.5 13.4375 C2.76965106 22.48376383 1.43017096 31.02312336 0 40 C-0.33 40 -0.66 40 -1 40 C-1.20638953 11.84846857 -1.20638953 11.84846857 0 0 Z " fill="#ADA176" transform="translate(56,111)"/>
<path d="M0 0 C0.99 0.495 0.99 0.495 2 1 C3.53668865 1.22467831 5.07968054 1.40796805 6.625 1.5625 C7.44226563 1.64628906 8.25953125 1.73007813 9.1015625 1.81640625 C9.72804688 1.87699219 10.35453125 1.93757813 11 2 C10.34 2.66 9.68 3.32 9 4 C7.68 4 6.36 4 5 4 C5.33 5.32 5.66 6.64 6 8 C7.65 7.67 9.3 7.34 11 7 C11 8.65 11 10.3 11 12 C9.8553125 12.1546875 9.8553125 12.1546875 8.6875 12.3125 C5.82940576 13.04364039 4.84257115 13.76951913 3 16 C0.65637178 13.65637178 0.66553411 12.88875552 0.375 9.6875 C0.30152344 8.88828125 0.22804688 8.0890625 0.15234375 7.265625 C-0.01098163 4.83668345 -0.0785046 2.43364261 0 0 Z " fill="#8B6F5D" transform="translate(84,72)"/>
<path d="M0 0 C1.98 0 3.96 0 6 0 C4.92734574 1.94343258 3.84143808 3.87955399 2.75 5.8125 C2.14671875 6.89144531 1.5434375 7.97039062 0.921875 9.08203125 C-0.89197254 11.83598269 -2.16257167 13.37861238 -5 15 C-8.25 15.1875 -8.25 15.1875 -11 15 C-11.33 14.01 -11.66 13.02 -12 12 C-11.38125 11.87625 -10.7625 11.7525 -10.125 11.625 C-7.80879168 11.12802644 -7.80879168 11.12802644 -6 9 C-5.30251417 7.68252676 -4.63040043 6.35085807 -4 5 C-3.67 5.33 -3.34 5.66 -3 6 C-0.8614515 3.8614515 -0.57344937 2.86724686 0 0 Z " fill="#876E5D" transform="translate(143,180)"/>
<path d="M0 0 C0 0.99 0 1.98 0 3 C-0.66 3 -1.32 3 -2 3 C-1.67 3.99 -1.34 4.98 -1 6 C-1.99 6.99 -2.98 7.98 -4 9 C-2.35 8.34 -0.7 7.68 1 7 C1 9.64 1 12.28 1 15 C0.34 15 -0.32 15 -1 15 C-1 14.34 -1 13.68 -1 13 C-1.66 13 -2.32 13 -3 13 C-3 13.66 -3 14.32 -3 15 C-4.32 15.33 -5.64 15.66 -7 16 C-7.33 15.01 -7.66 14.02 -8 13 C-9.49985609 11.33289654 -9.49985609 11.33289654 -11 10 C-10.01 10 -9.02 10 -8 10 C-7.731875 8.906875 -7.46375 7.81375 -7.1875 6.6875 C-5.70549091 2.08547178 -4.99928411 0 0 0 Z " fill="#CCD8A4" transform="translate(161,145)"/>
<path d="M0 0 C3.55736349 2.25299688 4.5736567 4.10132831 6 8 C6.50015625 8.60457031 7.0003125 9.20914063 7.515625 9.83203125 C9.29039769 12.42413347 9.48288992 14.13992675 9.6875 17.25 C9.78611328 18.58804688 9.78611328 18.58804688 9.88671875 19.953125 C9.92410156 20.62859375 9.96148437 21.3040625 10 22 C9.34 22.33 8.68 22.66 8 23 C7.52949219 21.98679687 7.05898437 20.97359375 6.57421875 19.9296875 C5.9453571 18.57810425 5.31644834 17.22654291 4.6875 15.875 C4.37876953 15.20984375 4.07003906 14.5446875 3.75195312 13.859375 C1.89592349 9.87379557 -0.01400162 5.92311064 -2 2 C-1.34 2 -0.68 2 0 2 C0 1.34 0 0.68 0 0 Z " fill="#ADAB86" transform="translate(141,87)"/>
<path d="M0 0 C0.33 0 0.66 0 1 0 C1.29296875 6.0546875 1.29296875 6.0546875 1 8 C-2.42094242 10.28062828 -3.68187222 10.21925007 -7.6875 10.125 C-9.17830078 10.09792969 -9.17830078 10.09792969 -10.69921875 10.0703125 C-11.45847656 10.04710937 -12.21773438 10.02390625 -13 10 C-12.01 9.67 -11.02 9.34 -10 9 C-9.67 6.69 -9.34 4.38 -9 2 C-6.23735711 1.40267181 -3.83967231 1 -1 1 C-0.67 0.67 -0.34 0.34 0 0 Z " fill="#D1E8AD" transform="translate(122,156)"/>
<path d="M0 0 C0.33 0 0.66 0 1 0 C1 2.97 1 5.94 1 9 C2.32 8.34 3.64 7.68 5 7 C5.33 7.66 5.66 8.32 6 9 C5.01 9.495 5.01 9.495 4 10 C4.4979837 13.73487777 4.87491756 15.81237635 7 19 C7.125 21.6875 7.125 21.6875 7 24 C7.66 24.33 8.32 24.66 9 25 C8.34 25 7.68 25 7 25 C6.67 25.66 6.34 26.32 6 27 C-3 8.15533981 -3 8.15533981 -3 2 C-2.34 2 -1.68 2 -1 2 C-0.67 1.34 -0.34 0.68 0 0 Z " fill="#BCC18D" transform="translate(59,149)"/>
<path d="M0 0 C0.99 0.33 1.98 0.66 3 1 C3.33 6.61 3.66 12.22 4 18 C3.01 18 2.02 18 1 18 C1 17.34 1 16.68 1 16 C-0.32 16 -1.64 16 -3 16 C-3.6875 13.75 -3.6875 13.75 -4 11 C-3.01439389 9.65599167 -2.01241685 8.32392972 -1 7 C-0.27518916 3.34725531 -0.27518916 3.34725531 0 0 Z " fill="#310906" transform="translate(124,156)"/>
<path d="M0 0 C2 1 2 1 3.125 4.1875 C3.94282794 7.75089319 4.47141673 10.38580504 4 14 C1.80790825 17.44471561 -0.18565079 19.50150567 -4 21 C-4.66 19.02 -5.32 17.04 -6 15 C-4.68 15 -3.36 15 -2 15 C-0.95785309 10.38492226 -0.95785309 10.38492226 -2 6 C-1.01 6 -0.02 6 1 6 C0.67 4.02 0.34 2.04 0 0 Z " fill="#3C0E05" transform="translate(120,33)"/>
<path d="M0 0 C1.70840281 1.63412443 2.93453047 2.86906094 4 5 C5.916588 5.02712153 7.8332873 5.04645097 9.75 5.0625 C10.81734375 5.07410156 11.8846875 5.08570312 12.984375 5.09765625 C15.53368501 5.01510087 17.57933591 4.74617558 20 4 C20 4.66 20 5.32 20 6 C17.74764367 8.20420619 16.39172243 8.95345872 13.23828125 9.328125 C12.27277344 9.30234375 11.30726562 9.2765625 10.3125 9.25 C9.33925781 9.23453125 8.36601563 9.2190625 7.36328125 9.203125 C5 9 5 9 4 8 C4 10.64 4 13.28 4 16 C2 14 2 14 1.8046875 11.6171875 C1.82789062 10.71226563 1.85109375 9.80734375 1.875 8.875 C1.89304687 7.96492188 1.91109375 7.05484375 1.9296875 6.1171875 C1.95289062 5.41851562 1.97609375 4.71984375 2 4 C1.34 4 0.68 4 0 4 C0 2.68 0 1.36 0 0 Z " fill="#69473A" transform="translate(81,65)"/>
<path d="M0 0 C0.99 0 1.98 0 3 0 C3 3 3 3 0.6875 5.625 C-2 8 -2 8 -5 9 C-7.07741505 12.11612257 -7.50024456 15.3351268 -8 19 C-8.33 19 -8.66 19 -9 19 C-9 17.02 -9 15.04 -9 13 C-9.66 13 -10.32 13 -11 13 C-10.67 10.36 -10.34 7.72 -10 5 C-9.34 5 -8.68 5 -8 5 C-8.33 4.34 -8.66 3.68 -9 3 C-6.03 3.495 -6.03 3.495 -3 4 C-2.566875 3.34 -2.13375 2.68 -1.6875 2 C-1.130625 1.34 -0.57375 0.68 0 0 Z " fill="#C9DBA3" transform="translate(94,87)"/>
<path d="M0 0 C0.33 1.32 0.66 2.64 1 4 C0.4225 4.226875 -0.155 4.45375 -0.75 4.6875 C-3.73456515 6.42849634 -5.15148221 8.06786833 -7 11 C-7.60657842 13.70203116 -7.81162289 16.22143762 -8 19 C-6.02 18.67 -4.04 18.34 -2 18 C-2.33 19.98 -2.66 21.96 -3 24 C-3.99 23.67 -4.98 23.34 -6 23 C-6 25.31 -6 27.62 -6 30 C-6.33 30 -6.66 30 -7 30 C-7.10957031 29.30132812 -7.21914062 28.60265625 -7.33203125 27.8828125 C-7.49058594 26.97273438 -7.64914063 26.06265625 -7.8125 25.125 C-8.03873047 23.76761719 -8.03873047 23.76761719 -8.26953125 22.3828125 C-8.83051301 19.65587522 -8.83051301 19.65587522 -12 18 C-11.01 18 -10.02 18 -9 18 C-9.37125 16.88625 -9.7425 15.7725 -10.125 14.625 C-10.44140625 12.4453125 -10.44140625 12.4453125 -10 10 C-7.04597703 6.22867954 -3.62997934 3.1132336 0 0 Z " fill="#968A6C" transform="translate(130,133)"/>
<path d="M0 0 C3.0625 0.125 3.0625 0.125 5.0625 1.125 C5.0625 3.105 5.0625 5.085 5.0625 7.125 C4.4025 6.795 3.7425 6.465 3.0625 6.125 C2.65 6.785 2.2375 7.445 1.8125 8.125 C1.235 8.785 0.6575 9.445 0.0625 10.125 C-1.2575 10.125 -2.5775 10.125 -3.9375 10.125 C-3.96439216 8.64593108 -3.98384621 7.16672517 -4 5.6875 C-4.01160156 4.86378906 -4.02320312 4.04007812 -4.03515625 3.19140625 C-3.87928644 -0.10679899 -3.35249348 0.1426593 0 0 Z " fill="#A19573" transform="translate(77.9375,67.875)"/>
<path d="M0 0 C0.33 0 0.66 0 1 0 C1.02698189 1.62490954 1.04638757 3.24994633 1.0625 4.875 C1.07410156 5.77992188 1.08570313 6.68484375 1.09765625 7.6171875 C1 10 1 10 0 12 C-0.10096856 13.4780676 -0.18195638 14.95755117 -0.25 16.4375 C-0.66990009 20.71222059 -0.66990009 20.71222059 -3.4375 23.125 C-4.283125 23.41375 -5.12875 23.7025 -6 24 C-6.66 23.67 -7.32 23.34 -8 23 C-7.34 22.38125 -6.68 21.7625 -6 21.125 C-3.7715451 19.24362573 -3.7715451 19.24362573 -4 17 C-3.34 17 -2.68 17 -2 17 C-2 16.01 -2 15.02 -2 14 C-5.27773504 14.75150023 -5.27773504 14.75150023 -7 18 C-6.8125 14.75 -6.8125 14.75 -6 11 C-4.33333333 9.66666667 -2.66666667 8.33333333 -1 7 C-0.10944264 3.35817665 -0.10944264 3.35817665 0 0 Z " fill="#BBC092" transform="translate(163,131)"/>
<path d="M0 0 C1.125 1.5625 1.125 1.5625 1.125 3.5625 C-2.835 4.2225 -6.795 4.8825 -10.875 5.5625 C-10.545 4.2425 -10.215 2.9225 -9.875 1.5625 C-12.35 0.5725 -12.35 0.5725 -14.875 -0.4375 C-14.875 -0.7675 -14.875 -1.0975 -14.875 -1.4375 C-4.34683099 -3.33257042 -4.34683099 -3.33257042 0 0 Z " fill="#593829" transform="translate(108.875,165.4375)"/>
<path d="M0 0 C0.33 0.66 0.66 1.32 1 2 C0.0625 4.125 0.0625 4.125 -1 6 C-1.66 5.34 -2.32 4.68 -3 4 C-3 10.6 -3 17.2 -3 24 C-3.66 24 -4.32 24 -5 24 C-5.53321262 21.77376199 -6.05110119 19.54384996 -6.5625 17.3125 C-6.85253906 16.07113281 -7.14257812 14.82976562 -7.44140625 13.55078125 C-7.96241956 10.23888546 -7.91852996 8.18139847 -7 5 C-6.34 5 -5.68 5 -5 5 C-5 4.01 -5 3.02 -5 2 C-3.35 1.34 -1.7 0.68 0 0 Z " fill="#BAC293" transform="translate(68,85)"/>
<path d="M0 0 C0.53625 0.2475 1.0725 0.495 1.625 0.75 C-0.85 2.235 -0.85 2.235 -3.375 3.75 C-2.385 4.08 -1.395 4.41 -0.375 4.75 C0.3125 6.8125 0.3125 6.8125 0.625 8.75 C-2.9195672 9.9315224 -4.73186868 9.39290553 -8.375 8.75 C-10.37465715 8.71296931 -12.37556665 8.70239444 -14.375 8.75 C-12.44245228 6.7254262 -10.74341312 5.32894208 -8.375 3.75 C-6.9209375 2.6671875 -6.9209375 2.6671875 -5.4375 1.5625 C-2.375 -0.25 -2.375 -0.25 0 0 Z " fill="#D1F0B3" transform="translate(109.375,155.25)"/>
<path d="M0 0 C0.33 0 0.66 0 1 0 C1.33 8.25 1.66 16.5 2 25 C1.34 24.34 0.68 23.68 0 23 C-0.04898438 23.71027344 -0.09796875 24.42054687 -0.1484375 25.15234375 C-0.22320312 26.07144531 -0.29796875 26.99054688 -0.375 27.9375 C-0.47941406 29.31228516 -0.47941406 29.31228516 -0.5859375 30.71484375 C-0.72257812 31.46894531 -0.85921875 32.22304687 -1 33 C-1.99 33.495 -1.99 33.495 -3 34 C-2.41030329 22.6095425 -1.35007127 11.32486965 0 0 Z " fill="#97835B" transform="translate(57,92)"/>
<path d="M0 0 C0.66 0 1.32 0 2 0 C2 4.29 2 8.58 2 13 C2.66 13 3.32 13 4 13 C3.50384615 17.58942308 3.50384615 17.58942308 0.953125 19.66796875 C0.30859375 20.10753906 -0.3359375 20.54710938 -1 21 C-1.02710123 18.4374282 -1.04688771 15.87514635 -1.0625 13.3125 C-1.07087891 12.59126953 -1.07925781 11.87003906 -1.08789062 11.12695312 C-1.10543632 7.28444618 -0.93524221 3.73360474 0 0 Z " fill="#CDDEA6" transform="translate(79,87)"/>
<path d="M0 0 C0.99 0.33 1.98 0.66 3 1 C3 2.98 3 4.96 3 7 C2.01 7.33 1.02 7.66 0 8 C0 5.36 0 2.72 0 0 Z M-3 7 C-2.01 7.33 -1.02 7.66 0 8 C2.57811233 15.87002712 2.19420667 23.81095208 2 32 C1.34 31.67 0.68 31.34 0 31 C-0.4140625 28.9609375 -0.4140625 28.9609375 -0.625 26.375 C-0.70105469 25.47265625 -0.77710937 24.5703125 -0.85546875 23.640625 C-0.97417531 21.47182408 -0.97252846 19.29676465 -0.9375 17.125 C-1.00012587 13.99370653 -1.48549776 12.65037893 -3 10 C-3 9.01 -3 8.02 -3 7 Z " fill="#CFE2A9" transform="translate(91,108)"/>
<path d="M0 0 C0.66 0.33 1.32 0.66 2 1 C1.505 1.33 1.01 1.66 0.5 2 C-1.86888254 5.15851005 -1.12358169 8.10717683 -1 12 C-1.33 12.66 -1.66 13.32 -2 14 C-4.64 14 -7.28 14 -10 14 C-10.33 13.34 -10.66 12.68 -11 12 C-10.21625 11.79375 -9.4325 11.5875 -8.625 11.375 C-5.71868608 10.22622847 -5.71868608 10.22622847 -4.9375 7.125 C-4.628125 6.09375 -4.31875 5.0625 -4 4 C-1.875 1.625 -1.875 1.625 0 0 Z " fill="#CED8A8" transform="translate(122,139)"/>
<path d="M0 0 C0.99 0.66 1.98 1.32 3 2 C2.38504727 4.81505058 1.75862099 7.62664944 1.125 10.4375 C0.95097656 11.23994141 0.77695313 12.04238281 0.59765625 12.86914062 C0.12849487 14.9282378 -0.42972759 16.96658343 -1 19 C-1.66 19.33 -2.32 19.66 -3 20 C-5.00602647 12.81173849 -2.4002564 6.85051718 0 0 Z " fill="#D7F0B4" transform="translate(110,74)"/>
<path d="M0 0 C0.66 0.33 1.32 0.66 2 1 C1.01 3.97 0.02 6.94 -1 10 C-1.66 10 -2.32 10 -3 10 C-3.33 11.65 -3.66 13.3 -4 15 C-4.99 15.33 -5.98 15.66 -7 16 C-6.67 14.96875 -6.34 13.9375 -6 12.875 C-5.19800276 10.17985282 -5.02031642 8.64784872 -5.1875 5.75 C-5.125625 4.8425 -5.06375 3.935 -5 3 C-2.625 1.0625 -2.625 1.0625 0 0 Z " fill="#A99F7E" transform="translate(102,71)"/>
<path d="M0 0 C0.33 0.66 0.66 1.32 1 2 C3.01669827 3.13350534 3.01669827 3.13350534 5 4 C4.01 5.485 4.01 5.485 3 7 C2.34 7 1.68 7 1 7 C0.34 8.98 -0.32 10.96 -1 13 C-1.66 13 -2.32 13 -3 13 C-3.33 14.98 -3.66 16.96 -4 19 C-4.99 19 -5.98 19 -7 19 C-6.36997319 14.33780161 -6.36997319 14.33780161 -4.5625 12.6875 C-2.40398436 10.35630311 -2.08975715 7.99466468 -1.4296875 4.9375 C-1 3 -1 3 0 0 Z " fill="#CCCB94" transform="translate(141,156)"/>
<path d="M0 0 C0.66 0 1.32 0 2 0 C2.33 1.98 2.66 3.96 3 6 C3.66 6 4.32 6 5 6 C5 5.01 5 4.02 5 3 C5.66 3 6.32 3 7 3 C8.35439668 5.70879335 8.06501451 8.00933268 8 11 C7.21625 10.95875 6.4325 10.9175 5.625 10.875 C2.83883881 10.71271266 2.83883881 10.71271266 1 13 C0.67 8.71 0.34 4.42 0 0 Z " fill="#BDC495" transform="translate(57,122)"/>
<path d="M0 0 C2 3 2 3 3 5 C3.66 4.01 4.32 3.02 5 2 C6.0635083 5.36644357 6.00078718 8.18522983 5.6875 11.6875 C5.56955078 13.14736328 5.56955078 13.14736328 5.44921875 14.63671875 C5.30097656 15.41660156 5.15273437 16.19648437 5 17 C4.34 17.33 3.68 17.66 3 18 C2.67 15.03 2.34 12.06 2 9 C0.35 9 -1.3 9 -3 9 C-2.30058404 5.85262818 -1.23921302 2.97411124 0 0 Z " fill="#BAC593" transform="translate(73,86)"/>
<path d="M0 0 C0.66 0.33 1.32 0.66 2 1 C2.32523926 4.57763189 2.42956587 6.39542581 0.3125 9.375 C-2.38790237 11.27258004 -3.77060081 11.35882213 -7 11 C-6.1875 8.0625 -6.1875 8.0625 -5 5 C-4.01 4.67 -3.02 4.34 -2 4 C-0.79117904 1.99983534 -0.79117904 1.99983534 0 0 Z " fill="#856652" transform="translate(114,49)"/>
<path d="M0 0 C3.40312738 1.05875074 6.01353231 2.00902154 9 4 C9.33 3.34 9.66 2.68 10 2 C10.66 3.65 11.32 5.3 12 7 C11.2575 6.814375 10.515 6.62875 9.75 6.4375 C7.05009037 6.00796892 5.55368923 6.14877026 3 7 C2.67 8.32 2.34 9.64 2 11 C2 9.68 2 8.36 2 7 C1.34 7 0.68 7 0 7 C0 4.69 0 2.38 0 0 Z " fill="#B1B88C" transform="translate(67,159)"/>
<path d="M0 0 C1.67542976 0.28604898 3.34385343 0.61781233 5 1 C5.33 2.65 5.66 4.3 6 6 C3.6875 7.5625 3.6875 7.5625 1 9 C0.01 8.67 -0.98 8.34 -2 8 C-1.125 1.125 -1.125 1.125 0 0 Z " fill="#D3E6A8" transform="translate(60,132)"/>
<path d="M0 0 C1.98 0 3.96 0 6 0 C6.28875 0.61875 6.5775 1.2375 6.875 1.875 C7.93720042 4.13325765 7.93720042 4.13325765 10 6 C8.906875 6.309375 7.81375 6.61875 6.6875 6.9375 C4.44592006 7.58337897 2.2130649 8.2623117 0 9 C0 6.03 0 3.06 0 0 Z " fill="#C7D6A3" transform="translate(113,81)"/>
<path d="M0 0 C0.99 0.33 1.98 0.66 3 1 C2.01 2.98 1.02 4.96 0 7 C0.66 7 1.32 7 2 7 C2.33 7.66 2.66 8.32 3 9 C3.99 9.66 4.98 10.32 6 11 C5.01 11.33 4.02 11.66 3 12 C2.67 12.99 2.34 13.98 2 15 C2 13.68 2 12.36 2 11 C0.68 10.67 -0.64 10.34 -2 10 C-2.66 7.69 -3.32 5.38 -4 3 C-3.34 3 -2.68 3 -2 3 C-1.34 2.01 -0.68 1.02 0 0 Z " fill="#C2C892" transform="translate(142,124)"/>
<path d="M0 0 C0.66 0 1.32 0 2 0 C2 0.99 2 1.98 2 3 C2.99 3 3.98 3 5 3 C2.87150389 7.25699221 -1.16159839 10.29890257 -5 13 C-4.64766839 7.5388601 -4.64766839 7.5388601 -4 5 C-1.9375 3.5 -1.9375 3.5 0 3 C0 2.01 0 1.02 0 0 Z " fill="#97866E" transform="translate(138,180)"/>
<path d="M0 0 C2.31 0.33 4.62 0.66 7 1 C6.125 5.75 6.125 5.75 5 8 C4.34 8 3.68 8 3 8 C2.67 8.66 2.34 9.32 2 10 C2 9.34 2 8.68 2 8 C1.34 8 0.68 8 0 8 C0 5.36 0 2.72 0 0 Z " fill="#826451" transform="translate(78,49)"/>
<path d="M0 0 C1.9375 0.75 1.9375 0.75 4 2 C4.875 4 4.875 4 5 6 C4.34 6.66 3.68 7.32 3 8 C0.375 7.625 0.375 7.625 -2 7 C-2.33 5.35 -2.66 3.7 -3 2 C-2.01 1.34 -1.02 0.68 0 0 Z " fill="#310F04" transform="translate(105,178)"/>
<path d="M0 0 C2.5 0.125 2.5 0.125 3.5 1.125 C3.54063832 2.79117115 3.542721 4.45888095 3.5 6.125 C1.52 7.115 1.52 7.115 -0.5 8.125 C-1.49 7.465 -2.48 6.805 -3.5 6.125 C-3.75 3.5625 -3.75 3.5625 -3.5 1.125 C-2.5 0.125 -2.5 0.125 0 0 Z " fill="#260705" transform="translate(102.5,190.875)"/>
<path d="M0 0 C0.33 0 0.66 0 1 0 C1 1.98 1 3.96 1 6 C1.66 6.33 2.32 6.66 3 7 C2.67 7.33 2.34 7.66 2 8 C4.31 8.33 6.62 8.66 9 9 C9 9.33 9 9.66 9 10 C1.25 11.125 1.25 11.125 -1 10 C-1.33 9.01 -1.66 8.02 -2 7 C-2.66 6.67 -3.32 6.34 -4 6 C-4.33 6.66 -4.66 7.32 -5 8 C-5.33 6.35 -5.66 4.7 -6 3 C-4.35 3 -2.7 3 -1 3 C-0.67 2.01 -0.34 1.02 0 0 Z " fill="#552E23" transform="translate(84,54)"/>
<path d="M0 0 C1.485 0.99 1.485 0.99 3 2 C3.328125 4.53125 3.328125 4.53125 3.25 7.5 C3.22679688 8.96953125 3.22679688 8.96953125 3.203125 10.46875 C3 13 3 13 2 15 C1.34 15 0.68 15 0 15 C-0.19601608 13.25093341 -0.38147403 11.50068154 -0.5625 9.75 C-0.66691406 8.77546875 -0.77132812 7.8009375 -0.87890625 6.796875 C-0.98974468 4.2368648 -0.77738092 2.41851841 0 0 Z " fill="#280201" transform="translate(124,234)"/>
<path d="M0 0 C2.7920147 1.39600735 3.00162933 3.00416384 4.125 5.875 C4.47820312 6.75929687 4.83140625 7.64359375 5.1953125 8.5546875 C6 11 6 11 6 14 C5.34 14 4.68 14 4 14 C4 13.34 4 12.68 4 12 C2.68 11.67 1.36 11.34 0 11 C-1.125 3.375 -1.125 3.375 0 0 Z " fill="#BFC995" transform="translate(67,142)"/>
<path d="M0 0 C0.33 0 0.66 0 1 0 C1 2.97 1 5.94 1 9 C1.99 9 2.98 9 4 9 C3.57742724 10.4835001 3.13643678 11.96176424 2.6875 13.4375 C2.44386719 14.26121094 2.20023438 15.08492187 1.94921875 15.93359375 C1.63597656 16.61550781 1.32273438 17.29742187 1 18 C0.01 18.33 -0.98 18.66 -2 19 C-1.7834375 17.081875 -1.7834375 17.081875 -1.5625 15.125 C-1.00185355 10.08719116 -0.49498469 5.04463121 0 0 Z " fill="#7C624C" transform="translate(127,177)"/>
<path d="M0 0 C0.33 0.99 0.66 1.98 1 3 C-0.5625 5.625 -0.5625 5.625 -3 8 C-6.25 8.8125 -6.25 8.8125 -9 9 C-9 8.01 -9 7.02 -9 6 C-8.34 6 -7.68 6 -7 6 C-6.67 5.01 -6.34 4.02 -6 3 C-2.9375 1.3125 -2.9375 1.3125 0 0 Z " fill="#9A856D" transform="translate(97,62)"/>
<path d="M0 0 C4.51720311 -0.36625971 4.51720311 -0.36625971 6.8125 1.375 C8 3 8 3 8 5 C7.34 5 6.68 5 6 5 C6 5.66 6 6.32 6 7 C6.66 7.33 7.32 7.66 8 8 C5.36 8 2.72 8 0 8 C0.33 7.01 0.66 6.02 1 5 C1.66 5 2.32 5 3 5 C3 4.01 3 3.02 3 2 C2.01 2 1.02 2 0 2 C0 1.34 0 0.68 0 0 Z " fill="#928063" transform="translate(93,37)"/>
<path d="M0 0 C1.27382218 3.82146654 0.97333827 6.10664693 0 10 C-2.4375 12 -2.4375 12 -5 13 C-5.66 12.67 -6.32 12.34 -7 12 C-7 9.03 -7 6.06 -7 3 C-6.34 2.67 -5.68 2.34 -5 2 C-4 5 -4 5 -4.9375 7.1875 C-5.4634375 8.0846875 -5.4634375 8.0846875 -6 9 C-5.34 9 -4.68 9 -4 9 C-3.67 8.01 -3.34 7.02 -3 6 C-2.67 6.66 -2.34 7.32 -2 8 C-1.34 5.36 -0.68 2.72 0 0 Z " fill="#B0AD85" transform="translate(129,140)"/>
<path d="M0 0 C0.33 0.66 0.66 1.32 1 2 C1.66 2 2.32 2 3 2 C4 5 4 5 3.0625 7.1875 C2.5365625 8.0846875 2.5365625 8.0846875 2 9 C2.66 9.33 3.32 9.66 4 10 C3.34 12.97 2.68 15.94 2 19 C1.67 19 1.34 19 1 19 C0.15976812 14.64667264 -0.10770995 10.55557481 -0.0625 6.125 C-0.05347656 4.97257813 -0.04445313 3.82015625 -0.03515625 2.6328125 C-0.02355469 1.76398438 -0.01195313 0.89515625 0 0 Z " fill="#D3E6A9" transform="translate(67,124)"/>
<path d="M0 0 C0.66 0.99 1.32 1.98 2 3 C2.66 2.67 3.32 2.34 4 2 C4 3.32 4 4.64 4 6 C1.03 5.505 1.03 5.505 -2 5 C-2.99 7.31 -3.98 9.62 -5 12 C-6.37058195 7.88825414 -5.75640862 5.26339405 -5 1 C-3 0 -3 0 0 0 Z " fill="#A29E7B" transform="translate(81,80)"/>
<path d="M0 0 C5.75 -0.125 5.75 -0.125 8 1 C8 1.66 8 2.32 8 3 C8.66 3 9.32 3 10 3 C9.67 4.98 9.34 6.96 9 9 C8.67 8.01 8.34 7.02 8 6 C6.35 6 4.7 6 3 6 C3 5.01 3 4.02 3 3 C2.01 2.67 1.02 2.34 0 2 C0 1.34 0 0.68 0 0 Z " fill="#401F08" transform="translate(77,173)"/>
<path d="M0 0 C1.32 0.33 2.64 0.66 4 1 C4.33 2.65 4.66 4.3 5 6 C4.01 5.01 3.02 4.02 2 3 C1.5875 3.804375 1.175 4.60875 0.75 5.4375 C-1 8 -1 8 -2.9375 8.75 C-3.9584375 8.87375 -3.9584375 8.87375 -5 9 C-6.11375 9.2784375 -6.11375 9.2784375 -7.25 9.5625 C-7.8275 9.706875 -8.405 9.85125 -9 10 C-8.2575 9.278125 -7.515 8.55625 -6.75 7.8125 C-4.30709485 5.31407427 -2.1318953 2.76356798 0 0 Z " fill="#89765B" transform="translate(106,64)"/>
<path d="M0 0 C0.99 0 1.98 0 3 0 C3 2.31 3 4.62 3 7 C-0.78786597 6.4739075 -3.17152224 5.61896089 -6 3 C-6 2.34 -6 1.68 -6 1 C-3.525 1.495 -3.525 1.495 -1 2 C-0.67 1.34 -0.34 0.68 0 0 Z " fill="#9F8973" transform="translate(97,52)"/>
<path d="M0 0 C1.32 0 2.64 0 4 0 C4.125 6.625 4.125 6.625 3 10 C2.34 10 1.68 10 1 10 C0.67 10.99 0.34 11.98 0 13 C-1.29676812 8.38926889 -0.71109139 4.66159911 0 0 Z " fill="#6C493E" transform="translate(102,47)"/>
<path d="M0 0 C0.33 0.66 0.66 1.32 1 2 C3.02463255 2.65213292 3.02463255 2.65213292 5 3 C1.91190305 4.76462683 0.76687864 5 -3 5 C-4.7511573 6.4166747 -4.7511573 6.4166747 -6 8 C-6.66 7.34 -7.32 6.68 -8 6 C-8 4.68 -8 3.36 -8 2 C-5.69 2 -3.38 2 -1 2 C-0.67 1.34 -0.34 0.68 0 0 Z " fill="#441E12" transform="translate(131,193)"/>
<path d="M0 0 C0.66 0.99 1.32 1.98 2 3 C1.67 3.99 1.34 4.98 1 6 C0.93259135 7.56118428 0.91485544 9.1250252 0.9375 10.6875 C0.94652344 11.49574219 0.95554688 12.30398437 0.96484375 13.13671875 C0.97644531 13.75160156 0.98804688 14.36648437 1 15 C-0.65 14.67 -2.3 14.34 -4 14 C-4.33 14.99 -4.66 15.98 -5 17 C-4.45276317 13.62537285 -3.9451 11.91765 -2 9 C-1.33386665 6.72461677 -1.33386665 6.72461677 -0.875 4.3125 C-0.62363281 3.10013672 -0.62363281 3.10013672 -0.3671875 1.86328125 C-0.24601563 1.24839844 -0.12484375 0.63351563 0 0 Z " fill="#BFBA86" transform="translate(145,139)"/>
<path d="M0 0 C2.97 1.65 5.94 3.3 9 5 C9 5.99 9 6.98 9 8 C7.35 8 5.7 8 4 8 C3.67 7.34 3.34 6.68 3 6 C2.01 6.495 2.01 6.495 1 7 C0.67 4.69 0.34 2.38 0 0 Z " fill="#AFB18B" transform="translate(119,77)"/>
<path d="M0 0 C0.33 0 0.66 0 1 0 C0.67 8.58 0.34 17.16 0 26 C-2.49310643 22.26034036 -2.0603261 20.70929359 -1.625 16.3125 C-1.51414062 15.13300781 -1.40328125 13.95351562 -1.2890625 12.73828125 C-1.19367188 11.83464844 -1.09828125 10.93101562 -1 10 C-1.66 10 -2.32 10 -3 10 C-2.67 8.35 -2.34 6.7 -2 5 C-1.67 5 -1.34 5 -1 5 C-0.67 3.35 -0.34 1.7 0 0 Z " fill="#3D110D" transform="translate(128,212)"/>
<path d="M0 0 C-4.8043208 2.4021604 -9.73103895 2.61122229 -15 3 C-15 2.01 -15 1.02 -15 0 C-13.06544546 -0.38991022 -11.12718172 -0.76145349 -9.1875 -1.125 C-8.10855469 -1.33382812 -7.02960938 -1.54265625 -5.91796875 -1.7578125 C-3 -2 -3 -2 0 0 Z " fill="#481E0F" transform="translate(115,170)"/>
<path d="M0 0 C0.66 0 1.32 0 2 0 C2 4.29 2 8.58 2 13 C1.67 12.34 1.34 11.68 1 11 C0.34 11 -0.32 11 -1 11 C-1.22174933 9.54364629 -1.42698698 8.08477044 -1.625 6.625 C-1.74101563 5.81289062 -1.85703125 5.00078125 -1.9765625 4.1640625 C-1.98429687 3.44992188 -1.99203125 2.73578125 -2 2 C-1.34 1.34 -0.68 0.68 0 0 Z " fill="#280402" transform="translate(125,222)"/>
<path d="M0 0 C0.33 0 0.66 0 1 0 C1.33 1.65 1.66 3.3 2 5 C3.32 4.34 4.64 3.68 6 3 C6 4.32 6 5.64 6 7 C5.030625 7.12375 4.06125 7.2475 3.0625 7.375 C1.5465625 7.684375 1.5465625 7.684375 0 8 C-0.33 8.66 -0.66 9.32 -1 10 C-1.33 8.02 -1.66 6.04 -2 4 C-1.34 4 -0.68 4 0 4 C0 2.68 0 1.36 0 0 Z " fill="#43220C" transform="translate(68,170)"/>
<path d="M0 0 C0.99 0.66 1.98 1.32 3 2 C1.35 4.64 -0.3 7.28 -2 10 C-4.14720899 7.85279101 -4.5434221 6.92209857 -5 4 C-3.74458443 1.48916886 -2.49936512 1.12874554 0 0 Z " fill="#968865" transform="translate(152,170)"/>
<path d="M0 0 C1.32 0.66 2.64 1.32 4 2 C1.14723863 4.93200474 -1.65079784 7.64315404 -5 10 C-3.14285714 2.42857143 -3.14285714 2.42857143 0 0 Z " fill="#CBDFA6" transform="translate(129,129)"/>
<path d="M0 0 C0.66 0 1.32 0 2 0 C2 0.66 2 1.32 2 2 C2.99 2 3.98 2 5 2 C5 2.66 5 3.32 5 4 C4.34 4 3.68 4 3 4 C3 4.99 3 5.98 3 7 C1.125 7.625 1.125 7.625 -1 8 C-1.66 7.34 -2.32 6.68 -3 6 C-3 5.01 -3 4.02 -3 3 C-2.01 3 -1.02 3 0 3 C0 2.01 0 1.02 0 0 Z " fill="#C0CB9C" transform="translate(127,102)"/>
<path d="M0 0 C0.66 0.33 1.32 0.66 2 1 C2 1.66 2 2.32 2 3 C3.65 3 5.3 3 7 3 C7.33 2.34 7.66 1.68 8 1 C9.65 1.33 11.3 1.66 13 2 C12.34 2.66 11.68 3.32 11 4 C11 4.99 11 5.98 11 7 C10.505 6.690625 10.01 6.38125 9.5 6.0625 C6.02013219 4.58355618 2.75971491 4.37597149 -1 4 C-0.67 2.68 -0.34 1.36 0 0 Z " fill="#BEC899" transform="translate(121,82)"/>
<path d="M0 0 C0.33 0 0.66 0 1 0 C0.9131724 2.12577907 0.8050049 4.25069581 0.6875 6.375 C0.62949219 7.55835938 0.57148438 8.74171875 0.51171875 9.9609375 C0.34285156 10.96382812 0.17398438 11.96671875 0 13 C-0.99 13.66 -1.98 14.32 -3 15 C-3.3152595 9.01006953 -2.68219822 5.36439644 0 0 Z " fill="#240200" transform="translate(128,205)"/>
<path d="M0 0 C0.66 0 1.32 0 2 0 C1.34 4.29 0.68 8.58 0 13 C-0.99 12.34 -1.98 11.68 -3 11 C-2.53199289 6.94393835 -2.12046792 3.53411321 0 0 Z " fill="#D4E4AA" transform="translate(104,72)"/>
<path d="M0 0 C2.02350324 3.03525486 2.32124018 4.19426202 2.625 7.6875 C2.69976562 8.49574219 2.77453125 9.30398437 2.8515625 10.13671875 C2.92503906 11.05904297 2.92503906 11.05904297 3 12 C2.01 11.34 1.02 10.68 0 10 C0 9.34 0 8.68 0 8 C-0.99 7.67 -1.98 7.34 -3 7 C-2.01 4.69 -1.02 2.38 0 0 Z " fill="#BDC293" transform="translate(81,72)"/>
<path d="M0 0 C0 0.66 0 1.32 0 2 C-2.19435701 4.11745198 -3.52389051 4.94589665 -6.578125 5.29296875 C-7.90070313 5.24076172 -7.90070313 5.24076172 -9.25 5.1875 C-10.14203125 5.16042969 -11.0340625 5.13335937 -11.953125 5.10546875 C-12.96632813 5.05326172 -12.96632813 5.05326172 -14 5 C-14 4.34 -14 3.68 -14 3 C-12.0424015 2.49713066 -10.08389623 1.9977901 -8.125 1.5 C-7.03445312 1.2215625 -5.94390625 0.943125 -4.8203125 0.65625 C-2 0 -2 0 0 0 Z " fill="#5D352F" transform="translate(101,69)"/>
<path d="M0 0 C2.64 0.33 5.28 0.66 8 1 C8.33 1.99 8.66 2.98 9 4 C5.37 4 1.74 4 -2 4 C-2 3.34 -2 2.68 -2 2 C-1.34 2 -0.68 2 0 2 C0 1.34 0 0.68 0 0 Z " fill="#603C31" transform="translate(91,48)"/>
<path d="M0 0 C0.66 0.33 1.32 0.66 2 1 C0.78704616 2.9684164 -0.44602849 4.92444402 -1.6875 6.875 C-2.37199219 7.96554688 -3.05648437 9.05609375 -3.76171875 10.1796875 C-6.08860188 13.11164147 -7.45021332 14.01774729 -11 15 C-10.60167969 14.57589844 -10.20335937 14.15179688 -9.79296875 13.71484375 C-7.04623172 10.67405214 -4.78064842 7.95558647 -3.25 4.125 C-2 1 -2 1 0 0 Z " fill="#5F271D" transform="translate(147,180)"/>
<path d="M0 0 C0.33 0.66 0.66 1.32 1 2 C3.02463255 2.65213292 3.02463255 2.65213292 5 3 C5 4.65 5 6.3 5 8 C4.34 8 3.68 8 3 8 C2.67 8.99 2.34 9.98 2 11 C0.68 8.03 -0.64 5.06 -2 2 C-1.34 1.34 -0.68 0.68 0 0 Z " fill="#BAC591" transform="translate(151,108)"/>
<path d="M0 0 C-0.99 0.66 -1.98 1.32 -3 2 C-3.73606499 5.56769552 -3.73606499 5.56769552 -4 9 C-4.33 7.68 -4.66 6.36 -5 5 C-5.639375 4.896875 -6.27875 4.79375 -6.9375 4.6875 C-7.618125 4.460625 -8.29875 4.23375 -9 4 C-9.33 3.01 -9.66 2.02 -10 1 C-6.59437148 0.22157062 -3.49234244 -0.09978121 0 0 Z " fill="#5E3C26" transform="translate(90,45)"/>
<path d="M0 0 C0.99 0.33 1.98 0.66 3 1 C2.67 3.97 2.34 6.94 2 10 C0.02 10 -1.96 10 -4 10 C-4 9.34 -4 8.68 -4 8 C-3.01 7.67 -2.02 7.34 -1 7 C-0.67 4.69 -0.34 2.38 0 0 Z " fill="#CCE0A6" transform="translate(116,109)"/>
<path d="M0 0 C0.99 0.99 1.98 1.98 3 3 C2.01 3.495 2.01 3.495 1 4 C1 4.66 1 5.32 1 6 C0.34 6 -0.32 6 -1 6 C-1 6.66 -1 7.32 -1 8 C-1.99 8 -2.98 8 -4 8 C-4.33 6.02 -4.66 4.04 -5 2 C-4.01 2 -3.02 2 -2 2 C-1.67 2.66 -1.34 3.32 -1 4 C-0.67 2.68 -0.34 1.36 0 0 Z " fill="#C7D99F" transform="translate(109,89)"/>
<path d="M0 0 C0.99 0.33 1.98 0.66 3 1 C2.67 1.99 2.34 2.98 2 4 C1.96045766 6.33299825 1.95598268 8.66708189 2 11 C2.99 11.33 3.98 11.66 5 12 C4.34 12 3.68 12 3 12 C2.67 12.99 2.34 13.98 2 15 C1.46467177 13.44240657 0.94734622 11.87861955 0.4375 10.3125 C0.14746094 9.44238281 -0.14257812 8.57226562 -0.44140625 7.67578125 C-1.05141961 4.75368926 -0.77703633 2.85599447 0 0 Z " fill="#CEE3A9" transform="translate(117,87)"/>
<path d="M0 0 C0.66 0 1.32 0 2 0 C2.66 0.99 3.32 1.98 4 3 C4.99 2.67 5.98 2.34 7 2 C7 4.31 7 6.62 7 9 C6.34 8.67 5.68 8.34 5 8 C5 7.34 5 6.68 5 6 C3.68 6 2.36 6 1 6 C0.67 4.02 0.34 2.04 0 0 Z " fill="#BFCB96" transform="translate(99,81)"/>
<path d="M0 0 C0.66 0 1.32 0 2 0 C2.268125 0.7425 2.53625 1.485 2.8125 2.25 C3.87348879 5.01274557 3.87348879 5.01274557 5.625 7.125 C7 9 7 9 7 12 C7.66 12.33 8.32 12.66 9 13 C8.34 13 7.68 13 7 13 C6.67 13.66 6.34 14.32 6 15 C4.99539469 12.87717331 3.99644398 10.75166979 3 8.625 C2.443125 7.44164062 1.88625 6.25828125 1.3125 5.0390625 C0 2 0 2 0 0 Z " fill="#A18C5F" transform="translate(59,161)"/>
<path d="M0 0 C0.99 0 1.98 0 3 0 C3 0.99 3 1.98 3 3 C2.34 3 1.68 3 1 3 C1.33 3.99 1.66 4.98 2 6 C1.34 6.66 0.68 7.32 0 8 C-2.125 7.625 -2.125 7.625 -4 7 C-2.79618552 4.50638429 -1.54571278 2.31856917 0 0 Z " fill="#C8D2A4" transform="translate(158,145)"/>
<path d="M0 0 C0.33 1.32 0.66 2.64 1 4 C0.4225 4.226875 -0.155 4.45375 -0.75 4.6875 C-4.52284957 6.88832892 -6.62574899 9.59655872 -7.75 13.8125 C-7.8325 14.534375 -7.915 15.25625 -8 16 C-10 13 -10 13 -9.91015625 11.109375 C-8.6428854 8.17235243 -6.73892742 6.45418401 -4.4375 4.25 C-3.61121094 3.45078125 -2.78492187 2.6515625 -1.93359375 1.828125 C-1.29550781 1.22484375 -0.65742188 0.6215625 0 0 Z " fill="#8C8061" transform="translate(130,133)"/>
<path d="M0 0 C0.99 0 1.98 0 3 0 C3.66 0.99 4.32 1.98 5 3 C4.67 3.99 4.34 4.98 4 6 C1.36 6 -1.28 6 -4 6 C-4 5.01 -4 4.02 -4 3 C-2.35 3 -0.7 3 1 3 C0.67 2.01 0.34 1.02 0 0 Z " fill="#AAAF85" transform="translate(127,109)"/>
<path d="M0 0 C0.33 0.99 0.66 1.98 1 3 C-1.97 3.66 -4.94 4.32 -8 5 C-7.67 3.68 -7.34 2.36 -7 1 C-4.53721199 -0.231394 -2.7204945 -0.07159196 0 0 Z " fill="#9C8C67" transform="translate(106,166)"/>
<path d="M0 0 C1.45792884 -0.05399736 2.91642712 -0.09279177 4.375 -0.125 C5.18710938 -0.14820313 5.99921875 -0.17140625 6.8359375 -0.1953125 C9 0 9 0 11 2 C9 4 9 4 6.8359375 4.1953125 C5.61777344 4.16050781 5.61777344 4.16050781 4.375 4.125 C3.55773437 4.10695312 2.74046875 4.08890625 1.8984375 4.0703125 C1.27195312 4.04710937 0.64546875 4.02390625 0 4 C0 2.66666667 0 1.33333333 0 0 Z " fill="#D0E8B0" transform="translate(81,164)"/>
<path d="M0 0 C1.32 0 2.64 0 4 0 C4 1.32 4 2.64 4 4 C4.99 4.33 5.98 4.66 7 5 C3.37 5 -0.26 5 -4 5 C-3.01 4.67 -2.02 4.34 -1 4 C-0.26676204 1.98491642 -0.26676204 1.98491642 0 0 Z " fill="#CFE5A7" transform="translate(113,161)"/>
<path d="M0 0 C0.66 0.33 1.32 0.66 2 1 C1.83628906 1.54140625 1.67257813 2.0828125 1.50390625 2.640625 C0.91409413 5.40222593 0.90390692 7.92818139 0.9375 10.75 C0.94652344 11.73484375 0.95554688 12.7196875 0.96484375 13.734375 C0.97644531 14.48203125 0.98804688 15.2296875 1 16 C0.34 16.33 -0.32 16.66 -1 17 C-1.33 11.72 -1.66 6.44 -2 1 C-1.34 0.67 -0.68 0.34 0 0 Z " fill="#C1CD97" transform="translate(61,140)"/>
<path d="M0 0 C3.97497544 3.40712181 5.86793788 7.32760855 8 12 C7.01 12.495 7.01 12.495 6 13 C6 12.01 6 11.02 6 10 C4.68 9.67 3.36 9.34 2 9 C1.34 6.03 0.68 3.06 0 0 Z " fill="#917956" transform="translate(150,101)"/>
<path d="M0 0 C2.475 0.99 2.475 0.99 5 2 C4.34 3.32 3.68 4.64 3 6 C1.68 6 0.36 6 -1 6 C-1.33 5.01 -1.66 4.02 -2 3 C-1.34 2.01 -0.68 1.02 0 0 Z " fill="#A7A07F" transform="translate(89,85)"/>
<path d="M0 0 C2.64 0 5.28 0 8 0 C7.34 0.66 6.68 1.32 6 2 C4.68 2 3.36 2 2 2 C2.19471111 3.94999129 2.19471111 3.94999129 3 6 C4.9837767 7.28436734 4.9837767 7.28436734 7 8 C4.625 7.6875 4.625 7.6875 2 7 C0 4 0 4 0 0 Z " fill="#744F44" transform="translate(87,74)"/>
<path d="M0 0 C1.27259511 0.45341868 2.54301243 0.91295227 3.8125 1.375 C4.52019531 1.63023437 5.22789063 1.88546875 5.95703125 2.1484375 C8 3 8 3 11 5 C11 5.66 11 6.32 11 7 C7.37 6.01 3.74 5.02 0 4 C0 2.68 0 1.36 0 0 Z " fill="#3A1707" transform="translate(64,187)"/>
<path d="M0 0 C0.66 0.33 1.32 0.66 2 1 C0.86500606 4.29148243 0.00716624 4.9959869 -3.125 6.75 C-4.548125 7.36875 -4.548125 7.36875 -6 8 C-6 6.68 -6 5.36 -6 4 C-3 1.75 -3 1.75 0 0 Z " fill="#D4EBB2" transform="translate(116,144)"/>
<path d="M0 0 C0.99 0.33 1.98 0.66 3 1 C1 4 1 4 -1 6 C-4.625 6.125 -4.625 6.125 -8 6 C-8 5.34 -8 4.68 -8 4 C-4.535 3.505 -4.535 3.505 -1 3 C-0.67 2.01 -0.34 1.02 0 0 Z " fill="#D2EAAF" transform="translate(155,141)"/>
<path d="M0 0 C1.98649442 2.97974163 2.72177479 5.13663065 3.625 8.5625 C3.88539063 9.53316406 4.14578125 10.50382812 4.4140625 11.50390625 C5 14 5 14 5 16 C4.34 16 3.68 16 3 16 C2.87625 15.360625 2.7525 14.72125 2.625 14.0625 C2.41875 13.381875 2.2125 12.70125 2 12 C1.34 11.67 0.68 11.34 0 11 C0 10.34 0 9.68 0 9 C0.66 9 1.32 9 2 9 C1.67 8.2575 1.34 7.515 1 6.75 C0 4 0 4 0 0 Z " fill="#BCC896" transform="translate(135,98)"/>
<path d="M0 0 C0.33 0 0.66 0 1 0 C1.621881 8.23992322 1.621881 8.23992322 -0.6875 11.0625 C-3.30085596 12.12196863 -5.20508215 12.23290982 -8 12 C-5.64722731 9.27573689 -3.37503669 8.1858237 0 7 C0 4.69 0 2.38 0 0 Z " fill="#977858" transform="translate(73,70)"/>
<path d="M0 0 C0.66 0.33 1.32 0.66 2 1 C0.25 5.875 0.25 5.875 -2 7 C-3.99960012 7.039992 -6.00047242 7.04346799 -8 7 C-6.06745228 4.9754262 -4.36841312 3.57894208 -2 2 C-1.34 1.34 -0.68 0.68 0 0 Z " fill="#BFC693" transform="translate(103,157)"/>
<path d="M0 0 C0.99 0.33 1.98 0.66 3 1 C1.25 3.5 1.25 3.5 -1 6 C-2.32 6 -3.64 6 -5 6 C-5.33 5.01 -5.66 4.02 -6 3 C-5.38125 2.87625 -4.7625 2.7525 -4.125 2.625 C-1.80879168 2.12802644 -1.80879168 2.12802644 0 0 Z " fill="#7E6753" transform="translate(137,189)"/>
<path d="M0 0 C1.32 0 2.64 0 4 0 C4 0.66 4 1.32 4 2 C4.928125 1.690625 4.928125 1.690625 5.875 1.375 C6.57625 1.25125 7.2775 1.1275 8 1 C8.66 1.66 9.32 2.32 10 3 C8.68 3 7.36 3 6 3 C6 3.99 6 4.98 6 6 C5.34 6 4.68 6 4 6 C3.67 5.34 3.34 4.68 3 4 C2.01 3.67 1.02 3.34 0 3 C0 2.01 0 1.02 0 0 Z " fill="#46210D" transform="translate(121,172)"/>
<path d="M0 0 C4.75 1.875 4.75 1.875 7 3 C7.33 2.34 7.66 1.68 8 1 C8.66 2.65 9.32 4.3 10 6 C6.7 5.34 3.4 4.68 0 4 C0 2.68 0 1.36 0 0 Z " fill="#C5D39F" transform="translate(69,160)"/>
<path d="M0 0 C0.33 0 0.66 0 1 0 C1 3.96 1 7.92 1 12 C-2.51716303 8.48283697 -2.54676163 6.80432667 -3 2 C-2.34 2 -1.68 2 -1 2 C-0.67 1.34 -0.34 0.68 0 0 Z " fill="#B2A676" transform="translate(59,149)"/>
<path d="M0 0 C1.32 0.33 2.64 0.66 4 1 C5.17571451 4.67410785 5.07366746 8.16929183 5 12 C4.67 12 4.34 12 4 12 C3.67 10.35 3.34 8.7 3 7 C2.01 7.495 2.01 7.495 1 8 C0.67 5.36 0.34 2.72 0 0 Z " fill="#DCF3B3" transform="translate(134,110)"/>
<path d="M0 0 C2.62386487 3.06117568 3 3.73173127 3 8 C3.66 8.33 4.32 8.66 5 9 C4.67 10.98 4.34 12.96 4 15 C1.81257986 11.7188698 1.45557194 9.66915644 0.875 5.8125 C0.70742188 4.72582031 0.53984375 3.63914062 0.3671875 2.51953125 C0.24601562 1.68808594 0.12484375 0.85664062 0 0 Z " fill="#C8D2A3" transform="translate(60,101)"/>
<path d="M0 0 C0.99 0.33 1.98 0.66 3 1 C3 1.99 3 2.98 3 4 C3.99 4.33 4.98 4.66 6 5 C3.07175348 5.97608217 1.04386724 6.08226668 -2 6 C-2 4.35 -2 2.7 -2 1 C-1.34 0.67 -0.68 0.34 0 0 Z " fill="#D1DFA9" transform="translate(132,105)"/>
<path d="M0 0 C1.485 0.99 1.485 0.99 3 2 C3.29296875 4.8203125 3.29296875 4.8203125 3.1875 8.125 C3.16042969 9.22070312 3.13335937 10.31640625 3.10546875 11.4453125 C3.07066406 12.28835937 3.03585938 13.13140625 3 14 C2.34 14 1.68 14 1 14 C-0.14806378 4.58997722 -0.14806378 4.58997722 0 0 Z " fill="#7E6353" transform="translate(84,72)"/>
<path d="M0 0 C4.55384615 -0.36923077 4.55384615 -0.36923077 6.8125 1.5 C7.204375 1.995 7.59625 2.49 8 3 C6.35 3 4.7 3 3 3 C3 5.31 3 7.62 3 10 C1.11608215 6.73454239 0.50712033 3.71888239 0 0 Z " fill="#4A2115" transform="translate(75,46)"/>
<path d="M0 0 C1.2065625 0.0309375 1.2065625 0.0309375 2.4375 0.0625 C3.5 1.875 3.5 1.875 4.4375 4.0625 C4.1075 5.0525 3.7775 6.0425 3.4375 7.0625 C2.4475 6.4025 1.4575 5.7425 0.4375 5.0625 C0.4375 4.4025 0.4375 3.7425 0.4375 3.0625 C-0.8825 2.4025 -2.2025 1.7425 -3.5625 1.0625 C-2.5625 0.0625 -2.5625 0.0625 0 0 Z " fill="#3E1E08" transform="translate(98.5625,181.9375)"/>
<path d="M0 0 C2.5625 2.25 2.5625 2.25 5 5 C4.8125 7.3125 4.8125 7.3125 4 9 C3.01 8.67 2.02 8.34 1 8 C-0.25 5.0625 -0.25 5.0625 -1 2 C-0.67 1.34 -0.34 0.68 0 0 Z " fill="#AFAD88" transform="translate(112,71)"/>
<path d="M0 0 C1.32 0.33 2.64 0.66 4 1 C2.68 3.31 1.36 5.62 0 8 C-0.66 8 -1.32 8 -2 8 C-1.125 2.25 -1.125 2.25 0 0 Z " fill="#A19379" transform="translate(130,188)"/>
<path d="M0 0 C0.99 0.33 1.98 0.66 3 1 C2.67 1.99 2.34 2.98 2 4 C1.34 4 0.68 4 0 4 C-0.33 4.99 -0.66 5.98 -1 7 C-1.66 6.67 -2.32 6.34 -3 6 C-2.625 3.5625 -2.625 3.5625 -2 1 C-1.34 0.67 -0.68 0.34 0 0 Z " fill="#220602" transform="translate(105,178)"/>
<path d="M0 0 C2 1 2 1 3.125 3.6875 C3.98889074 6.9579435 4.16013991 9.63706182 4 13 C1.8206856 11.24135754 1.06313581 10.30604 0.48828125 7.51953125 C0.43027344 6.62621094 0.37226563 5.73289062 0.3125 4.8125 C0.24675781 3.91144531 0.18101562 3.01039062 0.11328125 2.08203125 C0.07589844 1.39496094 0.03851563 0.70789063 0 0 Z " fill="#A89662" transform="translate(160,118)"/>
<path d="M0 0 C1.65 0 3.3 0 5 0 C3.79618552 2.49361571 2.54571278 4.68143083 1 7 C0.34 7 -0.32 7 -1 7 C-0.67 4.69 -0.34 2.38 0 0 Z " fill="#C8D7A2" transform="translate(125,119)"/>
<path d="M0 0 C2.31 0.33 4.62 0.66 7 1 C6.01 1.33 5.02 1.66 4 2 C3.87625 2.804375 3.7525 3.60875 3.625 4.4375 C3.41875 5.283125 3.2125 6.12875 3 7 C2.01 7.495 2.01 7.495 1 8 C1.020625 7.236875 1.04125 6.47375 1.0625 5.6875 C1.12942841 2.89814214 1.12942841 2.89814214 0 0 Z " fill="#BBC695" transform="translate(119,110)"/>
<path d="M0 0 C0.66 0.33 1.32 0.66 2 1 C2.625 3.5625 2.625 3.5625 3 6 C0 8 0 8 -2.1875 7.625 C-2.785625 7.41875 -3.38375 7.2125 -4 7 C-3.01 6.67 -2.02 6.34 -1 6 C-0.67 4.02 -0.34 2.04 0 0 Z " fill="#6D4940" transform="translate(101,62)"/>
<path d="M0 0 C2.0625 1.75 2.0625 1.75 4 4 C3.9375 6.125 3.9375 6.125 3 8 C2.01 8.66 1.02 9.32 0 10 C-1.125 3.375 -1.125 3.375 0 0 Z " fill="#5C3530" transform="translate(103,57)"/>
<path d="M0 0 C0.33 0.66 0.66 1.32 1 2 C0.34 2 -0.32 2 -1 2 C-1 2.66 -1 3.32 -1 4 C-1.66 4 -2.32 4 -3 4 C-3 5.32 -3 6.64 -3 8 C-3.99 8 -4.98 8 -6 8 C-5.67 7.01 -5.34 6.02 -5 5 C-5.66 4.34 -6.32 3.68 -7 3 C-4.69 2.01 -2.38 1.02 0 0 Z " fill="#340A04" transform="translate(90,21)"/>
<path d="M0 0 C0.66 0.33 1.32 0.66 2 1 C1.34 2.98 0.68 4.96 0 7 C-0.99 7 -1.98 7 -3 7 C-3 5.02 -3 3.04 -3 1 C-2.01 0.67 -1.02 0.34 0 0 Z " fill="#917C64" transform="translate(131,179)"/>
<path d="M0 0 C1.98 0.66 3.96 1.32 6 2 C5.01 2.495 5.01 2.495 4 3 C3.34444881 5.52733235 3.34444881 5.52733235 3 8 C0.37613513 4.93882432 0 4.26826873 0 0 Z " fill="#3C1B09" transform="translate(74,164)"/>
<path d="M0 0 C1.05609899 3.16829698 1.13055309 3.98519175 0 7 C-1.5625 8.75 -1.5625 8.75 -3 10 C-3.99 9.67 -4.98 9.34 -6 9 C-5.34 7.68 -4.68 6.36 -4 5 C-3.01 5 -2.02 5 -1 5 C-0.67 3.35 -0.34 1.7 0 0 Z " fill="#805F54" transform="translate(100,61)"/>
<path d="M0 0 C0.66 0.33 1.32 0.66 2 1 C1.67 1.99 1.34 2.98 1 4 C0.34 4 -0.32 4 -1 4 C-1.33 4.99 -1.66 5.98 -2 7 C-2.66 6.67 -3.32 6.34 -4 6 C-4.33 7.32 -4.66 8.64 -5 10 C-5.3125 7.8125 -5.3125 7.8125 -5 5 C-2.5 2.1875 -2.5 2.1875 0 0 Z " fill="#9D8061" transform="translate(63,82)"/>
<path d="M0 0 C1.65 0.33 3.3 0.66 5 1 C5.33 1.99 5.66 2.98 6 4 C3.69 4 1.38 4 -1 4 C-0.67 2.68 -0.34 1.36 0 0 Z " fill="#250200" transform="translate(84,169)"/>
<path d="M0 0 C2.46800047 1.15173355 4.04783565 2.04783565 6 4 C3.36 4 0.72 4 -2 4 C-2.33 3.34 -2.66 2.68 -3 2 C-2.01 1.34 -1.02 0.68 0 0 Z " fill="#C5D19F" transform="translate(114,149)"/>
<path d="M0 0 C0.99 0.33 1.98 0.66 3 1 C2.25 2.9375 2.25 2.9375 1 5 C-1.125 5.75 -1.125 5.75 -3 6 C-3 5.01 -3 4.02 -3 3 C-2.34 3.33 -1.68 3.66 -1 4 C-0.67 2.68 -0.34 1.36 0 0 Z " fill="#D8EFAF" transform="translate(62,135)"/>
<path d="M0 0 C1.32 0.33 2.64 0.66 4 1 C4 2.32 4 3.64 4 5 C2.68 5.33 1.36 5.66 0 6 C0 4.02 0 2.04 0 0 Z " fill="#BFCB96" transform="translate(133,89)"/>
<path d="M0 0 C0 0.99 0 1.98 0 3 C-2.31 4.32 -4.62 5.64 -7 7 C-7.33 6.34 -7.66 5.68 -8 5 C-3.375 0 -3.375 0 0 0 Z " fill="#C0C99B" transform="translate(97,87)"/>
<path d="M0 0 C1.32 0.99 2.64 1.98 4 3 C1.69 3.66 -0.62 4.32 -3 5 C-3 4.01 -3 3.02 -3 2 C-2.01 1.34 -1.02 0.68 0 0 Z " fill="#AA9F7D" transform="translate(67,81)"/>
<path d="M0 0 C-0.33 2.31 -0.66 4.62 -1 7 C-1.66 6.01 -2.32 5.02 -3 4 C-3.66 4.99 -4.32 5.98 -5 7 C-5.33 6.01 -5.66 5.02 -6 4 C-2.25 0 -2.25 0 0 0 Z " fill="#C4D09C" transform="translate(74,83)"/>
<path d="M0 0 C1.32 0.33 2.64 0.66 4 1 C4 2.32 4 3.64 4 5 C3.34 5 2.68 5 2 5 C1.67 6.32 1.34 7.64 1 9 C0.67 6.03 0.34 3.06 0 0 Z " fill="#3C130E" transform="translate(95,220)"/>
<path d="M0 0 C5.94 0.99 5.94 0.99 12 2 C8.23312136 3.88343932 6.97041037 4.22057835 3 4 C3 3.34 3 2.68 3 2 C2.01 1.67 1.02 1.34 0 1 C0 0.67 0 0.34 0 0 Z " fill="#320F05" transform="translate(107,165)"/>
<path d="M0 0 C0.99 0 1.98 0 3 0 C3.6875 1.75 3.6875 1.75 4 4 C2.5625 6.25 2.5625 6.25 1 8 C0.17361624 5.10765685 0 3.11257569 0 0 Z " fill="#B6AD83" transform="translate(154,163)"/>
<path d="M0 0 C0.66 0 1.32 0 2 0 C2.22174933 1.45635371 2.42698698 2.91522956 2.625 4.375 C2.74101563 5.18710938 2.85703125 5.99921875 2.9765625 6.8359375 C2.98429687 7.55007812 2.99203125 8.26421875 3 9 C2.34 9.66 1.68 10.32 1 11 C0.83197949 9.54182203 0.66562857 8.0834516 0.5 6.625 C0.4071875 5.81289062 0.314375 5.00078125 0.21875 4.1640625 C0 2 0 2 0 0 Z " fill="#C4D399" transform="translate(65,133)"/>
<path d="M0 0 C1.32 0.99 2.64 1.98 4 3 C3.67 3.99 3.34 4.98 3 6 C1.35 6 -0.3 6 -2 6 C-1.34 4.02 -0.68 2.04 0 0 Z " fill="#8D7055" transform="translate(109,54)"/>
<path d="M0 0 C0 0.66 0 1.32 0 2 C-2.97 1.67 -5.94 1.34 -9 1 C-4.82091936 -1.08954032 -4.19589427 -1.16552619 0 0 Z " fill="#BEC796" transform="translate(149,178)"/>
<path d="M0 0 C0.66 0 1.32 0 2 0 C2.33 1.98 2.66 3.96 3 6 C1.02 5.34 -0.96 4.68 -3 4 C-2.67 3.34 -2.34 2.68 -2 2 C-1.34 2 -0.68 2 0 2 C0 1.34 0 0.68 0 0 Z " fill="#4B2011" transform="translate(112,175)"/>
<path d="M0 0 C0.99 0 1.98 0 3 0 C2.67 2.31 2.34 4.62 2 7 C1.34 7 0.68 7 0 7 C-0.38133299 5.0085944 -0.71325582 3.00720923 -1 1 C-0.67 0.67 -0.34 0.34 0 0 Z " fill="#D2E6B1" transform="translate(66,166)"/>
<path d="M0 0 C0 2.64 0 5.28 0 8 C-0.66 7.67 -1.32 7.34 -2 7 C-2 6.01 -2 5.02 -2 4 C-2.99 3.67 -3.98 3.34 -5 3 C-1.125 0 -1.125 0 0 0 Z " fill="#B8C496" transform="translate(123,156)"/>
<path d="M0 0 C0.33 0 0.66 0 1 0 C1 2.64 1 5.28 1 8 C0.34 8 -0.32 8 -1 8 C-1 7.34 -1 6.68 -1 6 C-1.66 6 -2.32 6 -3 6 C-2.67 5.01 -2.34 4.02 -2 3 C-1.34 3 -0.68 3 0 3 C0 2.01 0 1.02 0 0 Z " fill="#CFD29F" transform="translate(161,152)"/>
<path d="M0 0 C0.99 0.99 1.98 1.98 3 3 C3.66 2.67 4.32 2.34 5 2 C5 3.32 5 4.64 5 6 C3.35 5.67 1.7 5.34 0 5 C-0.33 4.01 -0.66 3.02 -1 2 C-0.67 1.34 -0.34 0.68 0 0 Z " fill="#ADAD86" transform="translate(80,80)"/>
<path d="M0 0 C1.32 0.33 2.64 0.66 4 1 C3.67 2.65 3.34 4.3 3 6 C2.01 6 1.02 6 0 6 C0.185625 5.38125 0.37125 4.7625 0.5625 4.125 C1.23686176 1.95839822 1.23686176 1.95839822 0 0 Z " fill="#B9BF96" transform="translate(115,76)"/>
<path d="M0 0 C0.99 0.33 1.98 0.66 3 1 C3 1.66 3 2.32 3 3 C3.66 3 4.32 3 5 3 C5.33 2.34 5.66 1.68 6 1 C6.33 1.99 6.66 2.98 7 4 C5.02 4.33 3.04 4.66 1 5 C0.67 3.35 0.34 1.7 0 0 Z " fill="#CCDAA4" transform="translate(68,153)"/>
<path d="M0 0 C0.33 0.99 0.66 1.98 1 3 C0.01 3.495 0.01 3.495 -1 4 C-1.99 5.485 -1.99 5.485 -3 7 C-3 6.34 -3 5.68 -3 5 C-3.99 4.67 -4.98 4.34 -6 4 C-4.02 2.68 -2.04 1.36 0 0 Z " fill="#DCEEB7" transform="translate(160,152)"/>
<path d="M0 0 C1.32 0.99 2.64 1.98 4 3 C3.67 3.66 3.34 4.32 3 5 C2.01 5 1.02 5 0 5 C-0.66 4.01 -1.32 3.02 -2 2 C-1.34 2 -0.68 2 0 2 C0 1.34 0 0.68 0 0 Z " fill="#938C69" transform="translate(141,87)"/>
<path d="M0 0 C0.66 0.33 1.32 0.66 2 1 C1.67 1.99 1.34 2.98 1 4 C-0.65 4.33 -2.3 4.66 -4 5 C-4.33 4.34 -4.66 3.68 -5 3 C-2.625 1.4375 -2.625 1.4375 0 0 Z " fill="#A29277" transform="translate(102,71)"/>
<path d="M0 0 C0 0.99 0 1.98 0 3 C-2.66666667 3.66666667 -5.33333333 4.33333333 -8 5 C-3.375 0 -3.375 0 0 0 Z " fill="#917C68" transform="translate(105,69)"/>
<path d="M0 0 C1.32 0.66 2.64 1.32 4 2 C3.01 2.99 2.02 3.98 1 5 C0.01 4.01 -0.98 3.02 -2 2 C-1.34 1.34 -0.68 0.68 0 0 Z " fill="#745642" transform="translate(92,59)"/>
<path d="M0 0 C2.30163882 3.45245824 2.34490322 4.94738713 2 9 C1.34 9.66 0.68 10.32 0 11 C-0.19491452 9.54263913 -0.38069358 8.08405407 -0.5625 6.625 C-0.66691406 5.81289063 -0.77132812 5.00078125 -0.87890625 4.1640625 C-1 2 -1 2 0 0 Z " fill="#4C140B" transform="translate(122,38)"/>
</svg>
