<?xml version="1.0" standalone="no"?>
<!DOCTYPE svg PUBLIC "-//W3C//DTD SVG 20010904//EN"
 "http://www.w3.org/TR/2001/REC-SVG-20010904/DTD/svg10.dtd">
<svg version="1.0" xmlns="http://www.w3.org/2000/svg"
 width="300.000000pt" height="225.000000pt" viewBox="0 0 300.000000 225.000000"
 preserveAspectRatio="xMidYMid meet">
<metadata>
Created by potrace 1.10, written by Peter Selinger 2001-2011
</metadata>
<g transform="translate(0.000000,225.000000) scale(0.100000,-0.100000)"
fill="#000000" stroke="none">
<path d="M794 1876 c-44 -19 -73 -74 -89 -165 l-14 -79 30 -61 c21 -45 34 -61
47 -59 12 2 17 -4 18 -25 1 -27 29 -67 47 -67 6 0 3 8 -7 19 -9 10 -21 33 -26
51 l-9 32 22 -18 c12 -11 26 -25 30 -31 4 -7 13 -13 19 -13 7 0 6 5 -2 15 -11
13 -8 15 15 15 23 0 26 -2 15 -15 -21 -25 5 -17 30 10 13 14 27 25 32 25 11 0
0 -49 -18 -76 -16 -27 -64 -40 -75 -22 -5 7 -9 9 -8 3 0 -5 10 -23 23 -39 l23
-28 36 53 c36 55 48 103 33 128 -6 9 -5 12 1 8 5 -3 24 7 42 24 18 16 37 27
42 24 12 -8 12 27 -1 60 -7 17 -7 24 0 20 17 -11 11 11 -10 35 -11 13 -25 42
-32 64 -13 45 -34 76 -53 76 -7 0 -18 6 -24 14 -6 8 -26 16 -44 18 -18 3 -39
8 -47 11 -8 3 -29 0 -46 -7z m61 -70 c10 -7 16 -20 13 -28 -4 -8 -2 -21 3 -29
6 -10 9 -11 9 -1 0 7 10 17 23 22 17 7 18 9 5 9 -18 1 -26 31 -9 31 22 0 56
-27 58 -45 1 -11 5 -31 9 -44 7 -22 5 -23 -26 -16 -20 4 -41 2 -56 -6 -19 -10
-27 -10 -36 -1 -18 18 -75 15 -105 -5 -26 -17 -27 -17 -20 0 4 10 7 24 7 30 0
8 4 7 9 -2 7 -11 13 -7 25 17 15 29 15 32 -2 41 -9 6 -11 11 -4 11 21 0 27 2
47 16 24 17 27 17 50 0z m-17 -134 c3 -18 -2 -22 -26 -22 -18 0 -32 6 -36 16
-9 23 -1 28 24 14 12 -6 24 -9 28 -6 3 3 0 6 -6 6 -7 0 -12 5 -12 11 0 20 25
3 28 -19z m78 9 c-3 -4 1 -8 9 -8 8 0 12 4 9 9 -3 4 -1 8 5 8 5 0 13 -5 16
-10 4 -6 11 -7 17 -4 7 5 8 -14 3 -57 -5 -54 -11 -68 -36 -90 -33 -29 -68 -30
-118 -4 -31 16 -47 48 -50 103 -1 6 -5 12 -11 12 -5 0 -7 -8 -4 -17 5 -14 4
-15 -4 -4 -5 7 -16 18 -23 23 -11 8 -10 9 4 4 13 -4 17 0 18 17 l0 22 16 -22
c10 -15 26 -23 45 -23 16 0 27 -4 24 -8 -8 -13 11 -35 23 -28 8 5 7 12 -1 25
-6 10 -8 27 -4 37 7 17 8 17 17 3 5 -9 10 -26 12 -38 4 -29 17 -39 17 -13 0
13 8 22 23 25 19 4 19 4 -5 6 -29 1 -41 19 -24 37 12 13 30 8 22 -5z m94 -10
c0 -9 6 -23 13 -30 8 -9 8 -12 0 -7 -7 3 -14 -2 -18 -14 -3 -11 -11 -20 -16
-20 -6 0 -5 8 1 20 6 12 9 34 6 50 -2 17 0 28 5 24 5 -3 9 -13 9 -23z"/>
<path d="M1656 1835 c-43 -15 -100 -65 -122 -107 -18 -35 -18 -47 0 -22 14 18
14 17 11 -11 -3 -33 3 -55 16 -55 5 0 9 18 9 40 0 27 5 43 15 46 8 4 15 12 15
19 0 8 7 21 16 30 15 14 18 14 33 0 10 -8 21 -15 26 -15 5 0 0 7 -11 15 -17
13 -17 14 -1 15 9 0 17 4 17 8 0 4 14 13 32 20 27 10 35 9 50 -5 10 -9 18 -21
17 -27 0 -6 -3 -6 -6 2 -7 17 -73 16 -73 -1 0 -9 9 -12 29 -9 36 5 51 -18 47
-71 -2 -20 2 -38 8 -41 6 -3 2 -4 -9 -2 -11 1 -29 7 -40 13 -27 15 -44 1 -72
-59 -13 -27 -27 -48 -31 -48 -16 0 -22 13 -11 27 8 8 8 13 1 13 -6 0 -13 -6
-15 -12 -4 -10 -6 -10 -6 0 -1 7 -6 10 -11 7 -10 -6 -4 -15 32 -43 15 -12 20
-12 33 1 8 9 15 22 15 31 0 8 5 18 10 21 6 3 10 15 10 25 0 10 6 20 13 23 18
6 47 -4 48 -17 0 -6 2 -23 4 -38 2 -15 -1 -30 -6 -33 -5 -4 -9 1 -9 9 0 9 -4
16 -8 16 -10 0 -57 -61 -57 -74 0 -14 -22 -18 -30 -6 -9 14 -35 -6 -35 -27 0
-10 -6 -12 -22 -8 -19 6 -21 5 -11 -6 11 -10 19 -10 49 5 20 9 38 15 41 13 2
-2 -10 -18 -26 -36 -33 -35 -32 -37 9 -16 19 10 30 23 30 38 1 27 44 82 58 74
5 -4 16 1 25 11 20 23 57 133 57 172 0 32 -25 90 -44 102 -17 12 -77 8 -120
-7z"/>
<path d="M1615 1730 c-3 -5 3 -10 13 -10 11 0 25 -7 32 -15 7 -9 15 -13 18
-10 8 7 -29 45 -44 45 -7 0 -16 -4 -19 -10z"/>
<path d="M1506 1564 c-4 -47 -12 -94 -19 -104 -8 -14 -8 -22 2 -34 22 -26 33
-18 30 22 -1 20 -1 53 0 72 l2 35 18 -34 18 -33 1 41 c1 26 -2 40 -8 36 -6 -4
-10 12 -10 39 0 32 -4 46 -14 46 -10 0 -15 -24 -20 -86z"/>
<path d="M669 1453 c-50 -3 -71 -9 -84 -23 -24 -27 -38 -96 -24 -122 7 -13 7
-23 1 -27 -14 -9 4 -135 30 -208 17 -49 27 -64 50 -74 24 -10 28 -17 27 -48
-2 -54 -9 -73 -25 -67 -9 3 -14 -1 -14 -11 0 -12 -3 -14 -10 -7 -12 12 -22 49
-22 77 1 9 -3 15 -8 12 -5 -3 -5 8 0 25 8 27 6 31 -8 28 -20 -4 -21 -42 -3
-158 17 -109 19 -117 38 -124 10 -3 32 -15 48 -26 61 -40 63 -40 69 -25 3 8 2
14 -2 13 -17 -5 -52 29 -52 49 0 25 -33 33 -46 11 -6 -9 -10 -5 -14 12 -7 25
18 88 47 122 18 20 27 104 13 113 -6 3 -10 15 -10 26 0 17 7 19 68 19 38 0
102 -9 143 -20 46 -12 107 -20 162 -20 82 0 87 -1 87 -21 0 -15 5 -19 15 -15
8 3 15 0 15 -6 0 -8 3 -8 9 -3 10 11 31 147 24 155 -2 2 -7 -1 -11 -7 -14 -22
-194 -44 -305 -38 -56 4 -108 8 -115 11 -8 2 -19 1 -25 -3 -6 -4 -20 -7 -31
-8 -12 -1 -31 -5 -43 -9 -18 -6 -25 -1 -38 24 -9 17 -13 35 -10 40 3 6 3 16
-2 23 -4 6 -8 18 -10 26 -1 8 -5 26 -9 40 -4 14 -6 31 -4 36 1 6 4 25 5 43 4
43 14 52 43 41 21 -8 22 -10 8 -25 -9 -8 -16 -21 -16 -27 0 -8 3 -9 8 -1 23
34 72 14 75 -31 2 -21 -5 -31 -31 -45 -50 -27 -51 -32 -4 -24 28 4 42 3 42 -5
0 -6 14 -11 30 -11 17 0 30 -4 30 -9 0 -5 11 -8 25 -6 14 1 27 -1 30 -5 5 -9
100 -15 200 -14 79 1 151 24 155 49 3 27 119 -15 128 -47 5 -21 17 -23 29 -5
9 15 11 189 1 179 -3 -4 -10 -38 -15 -75 -8 -70 -20 -85 -39 -49 -7 14 -14 18
-21 11 -6 -6 -18 -6 -34 1 -24 10 -24 10 4 7 15 -3 27 -1 27 4 0 4 -12 9 -27
11 -17 2 -32 12 -39 26 -6 13 -16 28 -22 34 -15 15 -71 19 -94 7 -19 -10 -20
-17 -14 -76 l7 -64 -78 6 c-79 6 -157 19 -225 36 -26 7 -38 15 -38 28 0 40
-32 111 -50 111 -10 0 -22 6 -28 13 -14 17 -71 21 -88 6 -8 -7 -14 -7 -14 -1
0 5 7 15 15 22 8 7 15 21 15 31 0 11 3 19 8 20 4 0 18 2 31 5 13 2 31 -1 39
-8 13 -11 14 -10 3 10 -6 12 -10 22 -9 22 2 0 18 -4 36 -9 26 -8 32 -7 32 5 0
8 5 12 10 9 6 -3 10 -1 10 4 0 6 -3 10 -7 9 -5 -1 -38 -3 -74 -5z m450 -180
c-4 -27 1 -35 16 -23 12 10 15 10 15 -3 0 -10 6 -14 15 -11 22 9 20 -39 -2
-58 -31 -26 -43 -31 -37 -13 4 10 2 14 -7 10 -8 -3 -19 6 -26 22 -16 34 -16
56 -1 71 13 13 29 16 27 5z m46 -227 c1 -18 -4 -21 -36 -21 -21 0 -40 3 -44 6
-5 5 -58 -2 -90 -11 -12 -4 -127 11 -123 16 6 6 213 27 251 26 27 -1 36 2 31
11 -4 7 -3 8 2 4 5 -5 9 -19 9 -31z"/>
<path d="M1030 1443 c19 -10 36 -20 38 -24 1 -3 14 -4 27 -1 14 2 25 0 25 -7
0 -5 7 -8 16 -4 14 5 15 3 5 -15 -10 -18 -9 -21 4 -16 9 4 16 0 17 -10 0 -9 1
-22 2 -28 1 -17 19 -37 28 -32 11 7 -21 90 -42 109 -11 10 -32 19 -48 21 -16
2 -41 8 -56 14 -43 16 -54 11 -16 -7z"/>
<path d="M2266 1419 c-60 -53 -98 -118 -92 -154 3 -16 3 -48 -1 -72 -5 -40
-10 -46 -60 -74 -52 -30 -74 -59 -72 -97 0 -9 9 0 18 21 23 49 34 59 66 63 15
1 24 -1 20 -4 -4 -4 -12 -7 -18 -7 -8 0 -12 -20 -13 -52 -1 -40 2 -50 12 -46
8 3 14 18 14 35 0 18 10 39 25 54 14 14 25 37 25 51 0 14 8 32 18 39 20 16 36
18 27 5 -3 -5 0 -13 6 -17 8 -4 9 -3 5 4 -4 7 -1 12 6 12 7 0 19 9 26 20 13
21 3 27 -15 9 -7 -7 -23 -9 -37 -5 -18 4 -24 11 -21 26 2 11 0 18 -6 15 -20
-13 -7 53 20 90 22 32 33 40 57 38 16 -1 21 1 12 4 -10 2 -18 8 -18 12 0 13
49 31 83 31 26 0 37 -6 50 -30 10 -16 14 -30 9 -30 -6 0 -8 -9 -5 -21 4 -12
11 -18 20 -15 8 3 11 1 8 -4 -3 -5 -1 -20 5 -32 11 -23 11 -23 -10 1 -11 13
-23 21 -27 17 -3 -3 1 -14 10 -24 18 -20 24 -57 7 -47 -5 3 -10 -3 -10 -14 0
-12 -6 -20 -12 -18 -7 1 -12 -4 -10 -11 2 -10 -2 -10 -19 -2 -20 11 -20 13 -4
31 10 10 26 21 36 24 15 5 16 9 6 19 -9 10 -17 11 -32 2 -25 -14 -35 -28 -29
-38 3 -5 2 -7 -3 -6 -13 4 -63 -33 -57 -43 3 -5 15 -2 27 6 15 10 27 11 37 4
13 -8 11 -13 -12 -34 -16 -13 -28 -27 -28 -30 0 -12 24 -4 35 12 11 15 15 15
49 -7 l38 -23 -28 -18 c-24 -16 -94 -95 -94 -106 0 -3 20 16 45 41 31 32 52
46 71 46 30 0 74 -41 74 -70 0 -10 6 -21 13 -23 8 -4 8 -6 0 -6 -7 -1 -4 -16
9 -43 32 -66 25 -170 -19 -267 -13 -31 -26 -65 -29 -75 -5 -26 -44 -66 -65
-66 -9 0 -22 -7 -29 -15 -7 -8 -21 -15 -32 -15 -10 0 -30 -7 -43 -16 -14 -9
-36 -14 -50 -12 -14 3 -25 1 -25 -6 0 -6 -7 -3 -14 6 -7 10 -16 15 -19 11 -4
-3 -13 -1 -21 6 -19 16 -86 11 -86 -6 0 -7 -7 -13 -15 -13 -8 0 -15 5 -15 11
0 5 -4 8 -9 4 -5 -3 -26 11 -47 30 -20 19 -44 35 -53 34 -12 0 -11 -3 4 -9 11
-5 14 -9 8 -9 -7 -1 -27 8 -45 20 -18 12 -24 18 -13 15 20 -6 20 -6 0 9 -20
16 -20 16 4 34 20 15 38 18 92 15 37 -3 70 0 74 5 3 6 11 44 18 87 l12 76 47
-5 c26 -3 47 -3 46 1 -2 11 15 46 29 60 15 16 17 32 3 32 -5 0 -10 -6 -10 -14
0 -8 -9 -21 -20 -29 -11 -8 -17 -17 -12 -22 4 -4 -3 -5 -16 -2 -12 3 -20 1
-16 -4 10 -16 -49 -9 -70 9 -20 16 -20 16 -6 -2 13 -17 13 -19 0 -14 -19 7
-14 56 8 83 15 18 14 18 -8 -1 -14 -12 -31 -19 -37 -17 -8 3 -13 -4 -13 -16 0
-19 -17 -38 -25 -29 -8 8 19 67 33 73 7 2 10 0 7 -5 -3 -6 -2 -10 3 -10 6 0
12 7 16 15 3 8 0 14 -6 12 -15 -3 -22 27 -13 61 5 20 8 23 15 12 7 -11 9 -10
8 6 -3 39 -32 20 -41 -27 -5 -24 -13 -49 -18 -55 -31 -38 -79 -150 -79 -184 0
-38 -19 -69 -43 -71 -7 0 -23 -2 -37 -3 -14 -2 -37 0 -52 5 -32 9 -36 2 -10
-17 14 -11 15 -15 3 -23 -7 -5 -11 -13 -8 -17 3 -5 -45 -7 -106 -6 -62 2 -109
1 -105 -3 4 -4 25 -7 48 -7 28 1 40 -3 40 -14 0 -8 -6 -14 -13 -14 -7 0 -18
-5 -25 -12 -15 -15 -83 -38 -94 -31 -15 8 -68 -18 -68 -34 0 -9 -6 -13 -15 -9
-8 3 -15 2 -15 -2 0 -4 -12 -9 -26 -10 -15 -1 -34 -8 -42 -15 -13 -10 -14 -9
-8 2 7 10 3 12 -14 6 -22 -7 -22 -7 -3 21 10 16 13 25 6 21 -8 -5 -14 5 -20
30 -4 21 -6 41 -5 46 1 4 -3 7 -9 7 -5 0 -7 5 -4 10 4 6 1 17 -5 25 -10 12
-10 15 0 15 10 0 10 3 0 15 -10 12 -10 18 1 32 8 9 9 14 3 10 -17 -10 -41 23
-67 89 -25 62 -24 77 1 107 20 23 42 22 42 -3 0 -13 -9 -22 -26 -26 -30 -8
-21 -19 23 -27 34 -7 48 9 32 34 -12 20 -11 53 3 67 10 10 16 3 30 -30 9 -24
17 -37 17 -30 1 7 -4 23 -10 34 -18 33 -19 159 -3 186 13 20 13 22 -3 22 -9 0
-26 11 -38 24 -11 13 -31 27 -45 31 l-25 7 28 -22 c41 -33 56 -77 50 -153 l-6
-65 -37 -6 c-30 -5 -43 -14 -60 -41 -21 -34 -21 -38 -7 -78 60 -164 87 -264
91 -342 2 -22 3 -46 4 -52 2 -16 44 -17 59 -2 7 7 36 16 65 20 54 9 83 31 73
57 -4 10 0 12 12 7 43 -17 57 -16 117 14 45 22 78 31 113 31 47 0 51 2 56 28
3 15 12 36 20 47 13 16 17 17 31 6 9 -7 16 -28 16 -45 0 -40 16 -56 54 -56 40
0 80 -22 113 -60 31 -38 76 -39 81 -2 4 28 21 28 74 1 45 -23 97 -21 127 4 9
8 29 17 46 21 16 4 47 15 70 25 22 10 48 21 58 24 10 4 17 17 17 31 0 36 19
81 30 70 5 -5 10 -25 12 -44 l3 -35 61 0 c34 0 72 2 85 5 24 6 24 6 -6 21
l-30 15 0 94 c0 52 -4 101 -8 108 -10 14 -57 16 -57 2 0 -5 6 -10 14 -10 8 0
17 -7 20 -16 8 -22 8 -26 -3 -19 -5 3 -13 0 -17 -6 -4 -7 -3 -9 3 -6 13 8 36
-17 26 -27 -4 -4 -8 -22 -8 -41 -1 -20 -5 -38 -8 -42 -4 -3 -2 -12 4 -20 9
-10 7 -13 -10 -13 -11 0 -24 0 -28 -1 -4 0 -9 5 -12 12 -2 7 2 10 11 7 8 -4
15 0 15 7 0 10 -5 11 -19 4 -12 -7 -18 -6 -18 1 0 6 -5 8 -10 5 -19 -12 -22
24 -6 67 9 24 19 61 21 83 2 22 7 54 11 72 4 23 0 45 -15 76 -12 24 -21 54
-21 68 0 38 -34 84 -95 129 l-57 42 35 24 c20 13 38 32 40 41 25 92 14 151
-39 206 -52 53 -94 52 -158 -4z m-241 -639 c4 -6 11 -7 17 -4 7 4 8 2 4 -4 -5
-8 1 -12 14 -12 18 0 21 -4 17 -22 -3 -13 -9 -40 -12 -60 l-7 -38 -50 5 c-44
4 -49 3 -38 -10 10 -12 10 -15 -4 -15 -11 0 -16 9 -16 31 0 19 4 28 11 23 8
-5 8 -1 0 14 -10 19 -9 20 29 17 45 -5 52 6 15 23 -28 13 -37 59 -9 48 8 -3
12 -2 9 4 -3 6 -2 10 4 10 5 0 13 -5 16 -10z"/>
<path d="M1786 1413 c-11 -12 -6 -23 12 -23 9 0 32 -22 50 -49 26 -38 35 -62
38 -104 2 -31 12 -70 24 -89 28 -48 32 -92 9 -111 -18 -16 -179 -33 -179 -19
0 4 -22 7 -50 7 -27 0 -52 5 -54 10 -3 6 -5 2 -5 -7 -1 -12 -9 -18 -24 -18
-13 0 -28 -5 -34 -11 -6 -6 -19 -9 -29 -6 -17 3 -16 5 6 15 l25 12 -25 -1
c-40 -2 -46 1 -30 11 12 8 11 10 -7 10 -16 0 -21 4 -17 15 5 11 -1 15 -21 15
-18 0 -24 4 -19 13 5 8 2 7 -10 -2 -9 -8 -13 -17 -8 -20 10 -7 11 -51 0 -45
-9 6 -58 -88 -58 -111 0 -35 28 -10 60 55 19 38 39 70 44 70 4 0 17 -12 28
-26 18 -22 25 -25 62 -19 22 4 49 12 59 17 12 6 34 4 68 -5 56 -17 197 -15
242 2 23 9 27 16 27 47 0 38 -58 232 -87 288 -21 43 -83 93 -97 79z"/>
<path d="M2240 1348 c0 -5 5 -6 10 -3 6 3 10 2 10 -4 0 -6 7 -8 15 -5 10 4 15
0 15 -11 0 -10 -5 -15 -14 -12 -8 3 -13 -1 -12 -10 0 -9 -6 -18 -14 -20 -13
-4 -13 -3 0 6 18 13 1 14 -19 2 -10 -7 -7 -12 15 -23 16 -8 28 -20 26 -27 -1
-7 2 -9 9 -6 6 5 9 20 5 37 -3 18 -2 27 4 23 6 -3 10 1 10 9 0 28 23 29 47 2
12 -15 23 -22 23 -16 0 11 -47 59 -59 61 -57 6 -71 5 -71 -3z"/>
<path d="M1770 1220 c0 -29 24 -82 43 -99 9 -7 14 -17 11 -22 -7 -13 -167 -11
-219 2 -70 18 -75 5 -7 -17 34 -11 62 -18 62 -15 0 7 61 4 107 -5 23 -4 43 0
72 17 35 19 44 21 67 10 24 -11 26 -10 14 3 -7 9 -24 16 -37 16 -35 0 -106 76
-100 107 2 13 0 23 -4 23 -5 0 -9 -9 -9 -20z"/>
<path d="M1496 1133 c-14 -20 -23 -39 -19 -42 3 -3 8 -1 10 5 2 6 11 20 19 30
14 18 15 18 4 -3 -6 -13 -7 -23 -2 -23 9 0 32 43 32 60 0 21 -20 8 -44 -27z"/>
<path d="M1210 1136 c0 -5 8 -18 18 -29 16 -20 16 -20 -2 -13 -16 5 -17 4 -7
-8 7 -8 20 -12 28 -9 12 5 15 2 10 -9 -4 -11 1 -18 16 -22 12 -3 23 -4 25 -1
6 6 -18 45 -29 45 -5 0 -21 12 -34 28 -13 15 -25 23 -25 18z"/>
<path d="M1735 911 c2 -41 -1 -51 -19 -60 -20 -11 -20 -11 2 -5 22 5 23 4 11
-18 -11 -21 -11 -22 4 -9 12 10 17 30 17 72 0 32 -4 60 -9 63 -5 3 -8 -16 -6
-43z"/>
<path d="M2368 920 c-20 -22 -13 -32 17 -24 37 9 37 -21 2 -78 -17 -29 -36
-56 -41 -59 -5 -4 -6 -11 -2 -17 3 -5 -6 -26 -19 -47 -14 -20 -20 -33 -14 -29
8 4 9 3 5 -4 -4 -7 -17 -12 -29 -13 -21 0 -21 -1 -2 -9 11 -5 23 -9 27 -9 16
-2 49 45 59 83 11 41 56 136 64 136 5 0 45 -89 45 -102 0 -5 -14 -29 -30 -54
-24 -34 -37 -44 -59 -44 -20 0 -31 -7 -40 -26 -8 -19 -16 -24 -29 -19 -19 9
-28 9 -96 7 -71 -3 -49 -14 36 -19 62 -3 76 -1 103 19 26 19 28 19 15 2 -8
-10 -31 -33 -50 -51 -19 -18 -29 -32 -22 -33 6 0 12 5 12 11 0 6 6 9 12 7 7
-3 21 6 31 19 10 13 26 23 35 23 15 0 15 2 2 10 -13 8 -12 10 3 10 9 0 37 27
63 62 53 73 53 92 2 165 -18 25 -40 57 -48 71 -20 32 -31 35 -52 12z"/>
<path d="M1146 912 c3 -13 5 -47 4 -75 -1 -29 -2 -64 -1 -79 0 -16 -3 -28 -8
-28 -4 0 -13 -12 -20 -27 l-12 -28 27 27 28 27 21 -67 c14 -44 27 -68 38 -70
21 -4 22 14 2 34 -14 14 -20 40 -16 70 1 6 -9 22 -22 35 -22 22 -24 32 -22
112 1 49 -1 84 -5 77 -6 -9 -9 -9 -14 1 -3 8 -3 3 0 -9z"/>
<path d="M2148 865 c3 -19 1 -24 -11 -20 -10 4 -16 -2 -19 -19 -4 -21 -3 -23
14 -13 10 7 22 23 27 37 l9 25 2 -25 1 -25 10 23 c5 13 13 20 19 17 5 -3 10
-1 10 6 0 6 -8 9 -19 6 -10 -2 -25 -1 -33 4 -12 7 -14 3 -10 -16z"/>
<path d="M2287 846 c-4 -10 -14 -12 -29 -8 -22 5 -22 5 -5 -13 18 -17 19 -17
39 2 12 12 16 23 10 27 -5 3 -12 0 -15 -8z"/>
<path d="M2226 805 c-9 -9 -16 -19 -16 -23 0 -3 5 -1 12 6 8 8 15 8 24 1 7 -6
14 -6 18 -1 3 6 0 15 -8 21 -11 9 -18 8 -30 -4z"/>
<path d="M1310 790 c0 -5 -7 -10 -15 -10 -24 0 -38 -36 -24 -62 12 -22 13 -22
22 12 5 19 10 36 12 38 7 8 45 -20 40 -28 -3 -6 1 -7 10 -4 13 5 13 9 3 22
-11 14 -10 14 12 0 14 -9 44 -21 68 -28 23 -6 42 -16 42 -22 0 -7 -4 -7 -12 0
-9 7 -17 6 -26 -4 -11 -12 -10 -14 3 -14 14 0 19 -11 16 -37 -1 -7 3 -13 8
-13 5 0 8 10 6 21 -4 20 -1 21 58 17 34 -3 56 -3 49 0 -8 2 -3 9 13 18 33 17
38 17 29 2 -6 -10 -4 -10 7 0 16 15 33 16 23 0 -5 -7 -3 -8 5 -4 7 5 10 14 8
20 -3 7 1 13 8 13 8 0 11 -7 7 -15 -3 -9 -1 -13 5 -9 5 3 10 1 10 -6 0 -7 4
-25 8 -42 5 -23 4 -26 -4 -15 -7 10 -11 11 -11 3 0 -7 -6 -13 -14 -13 -7 0
-19 -6 -25 -14 -9 -11 -2 -13 43 -14 l54 0 -2 99 c-1 72 -4 95 -12 85 -5 -8
-30 -22 -55 -31 -24 -9 -51 -20 -60 -25 -18 -10 -58 -6 -167 16 -8 1 -38 14
-68 28 -59 28 -74 31 -74 16z m268 -86 c-10 -10 -78 -12 -84 -3 -3 5 16 9 42
9 26 0 45 -3 42 -6z"/>
<path d="M1367 734 c-11 -11 3 -24 18 -18 9 4 18 -1 21 -11 5 -13 9 -14 15 -3
11 18 -39 47 -54 32z"/>
<path d="M740 608 c0 -20 6 -40 13 -45 6 -4 39 -8 72 -9 33 -1 73 -5 88 -9 23
-6 33 -3 56 19 25 24 32 26 89 20 53 -6 63 -4 68 10 11 28 -9 39 -50 28 -21
-6 -38 -7 -42 -1 -3 5 9 9 27 9 18 0 30 2 27 5 -2 3 -82 6 -176 8 l-172 2 0
-37z m100 12 c-15 -9 70 -7 118 4 28 6 28 -4 0 -34 -13 -14 -23 -19 -26 -12
-2 7 -13 12 -23 12 -11 0 -18 -4 -15 -8 3 -5 -8 -6 -24 -4 -19 3 -27 8 -23 16
4 6 0 5 -9 -2 -13 -10 -22 -11 -37 -2 -37 19 -22 34 39 38 13 2 13 1 0 -8z"/>
<path d="M2075 610 c-10 -17 -2 -21 51 -26 27 -3 51 -9 52 -14 2 -6 11 -10 19
-10 12 0 9 6 -10 24 -18 16 -33 22 -51 19 -14 -3 -32 0 -40 6 -10 9 -16 9 -21
1z"/>
<path d="M1370 588 c0 -6 3 -9 6 -6 7 8 56 -41 50 -50 -6 -10 91 -9 101 1 4 5
4 8 -2 7 -5 -1 -22 -2 -37 -1 -22 1 -28 6 -29 24 -1 21 -1 21 -9 -3 l-8 -25
-1 25 c-1 17 -4 21 -9 12 -7 -9 -13 -8 -27 8 -20 22 -35 26 -35 8z"/>
</g>
</svg>
